<?xml version="1.0" encoding="UTF-8"?>
<svg width="120px" height="120px" viewBox="0 0 120 120" version="1.1" xmlns="http://www.w3.org/2000/svg" xmlns:xlink="http://www.w3.org/1999/xlink">
    <!-- Generator: Sketch 56.2 (81672) - https://sketch.com -->
    <title>Group 14</title>
    <desc>Created with Sketch.</desc>
    <g id="Page-1" stroke="none" stroke-width="1" fill="none" fill-rule="evenodd">
        <g id="Finstream-Draft" transform="translate(-272.000000, -8660.000000)">
            <g id="Group-14" transform="translate(272.000000, 8660.000000)">
                <g id="Group-29" fill="#F5FAFD">
                    <path d="M60,0 C26.8644,0 0,26.8644 0,60 C0,93.1356 26.8644,120 60,120 C93.1356,120 120,93.1356 120,60 C120,26.8644 93.1356,0 60,0 Z" id="Fill-1"></path>
                </g>
                <g id="Group-13" transform="translate(39.000000, 41.000000)" fill="#0072FF">
                    <path d="M40.7,6.52941176 L29.7,6.52941176 L29.7,3.26470588 C29.7,1.46661471 28.21753,0 26.4,0 L17.6,0 C15.78247,0 14.3,1.46661471 14.3,3.26470588 L14.3,6.52941176 L3.3,6.52941176 C1.48247,6.52941176 0,7.99602647 0,9.79411765 L0,22.8529412 C0,23.8136462 0.429682,24.6723618 1.1,25.2675176 L1.1,33.7352941 C1.1,35.5333853 2.58247,37 4.4,37 L39.6,37 C41.41753,37 42.9,35.5333853 42.9,33.7352941 L42.9,25.2675176 C43.570318,24.6681394 44,23.8137441 44,22.8529412 L44,9.79411765 C44,7.99602647 42.51753,6.52941176 40.7,6.52941176 Z M16.5,3.26470588 C16.5,2.66532765 16.994142,2.17647059 17.6,2.17647059 L26.4,2.17647059 C27.005858,2.17647059 27.5,2.66532765 27.5,3.26470588 L27.5,6.52941176 L16.5,6.52941176 L16.5,3.26470588 Z M2.2,9.79411765 C2.2,9.19473941 2.694142,8.70588235 3.3,8.70588235 L40.7,8.70588235 C41.305858,8.70588235 41.8,9.19473941 41.8,9.79411765 L41.8,22.8529412 C41.8,23.4523194 41.305858,23.9411765 40.7,23.9411765 L3.3,23.9411765 C2.694142,23.9411765 2.2,23.4523194 2.2,22.8529412 L2.2,9.79411765 Z M40.7,33.7352941 C40.7,34.3346724 40.205858,34.8235294 39.6,34.8235294 L4.4,34.8235294 C3.794142,34.8235294 3.3,34.3346724 3.3,33.7352941 L3.3,26.1176471 L40.7,26.1176471 L40.7,33.7352941 Z" id="Fill-1" stroke="#F5FAFD" stroke-width="0.2"></path>
                    <rect id="Rectangle" x="10" y="26" width="3" height="2"></rect>
                    <rect id="Rectangle" x="31" y="26" width="3" height="2"></rect>
                </g>
            </g>
        </g>
    </g>
</svg>