<?xml version="1.0" encoding="UTF-8"?>
<svg width="120px" height="120px" viewBox="0 0 120 120" version="1.1" xmlns="http://www.w3.org/2000/svg" xmlns:xlink="http://www.w3.org/1999/xlink">
    <!-- Generator: Sketch 56.2 (81672) - https://sketch.com -->
    <title>Group 15</title>
    <desc>Created with Sketch.</desc>
    <g id="Page-1" stroke="none" stroke-width="1" fill="none" fill-rule="evenodd">
        <g id="Finstream-Draft" transform="translate(-661.000000, -8660.000000)">
            <g id="Group-15" transform="translate(661.000000, 8660.000000)">
                <g id="Group-29" fill="#F5FAFD">
                    <path d="M60,0 C26.8644,0 0,26.8644 0,60 C0,93.1356 26.8644,120 60,120 C93.1356,120 120,93.1356 120,60 C120,26.8644 93.1356,0 60,0 Z" id="Fill-1"></path>
                </g>
                <path d="M77.5987253,37.0384723 L77.5987253,34.9865223 C77.5987253,34.8827414 77.5019596,34.8237804 77.4052,34.8237804 L44.2718999,34.8237804 C44.1751343,34.8237804 44.0783746,34.8851022 44.0783746,34.9865223 L44.0783746,37.0384723 L77.5987253,37.0384723 Z M85,55.0437537 C84.9928646,56.1004016 84.53501,57.090994 83.8080773,57.8080051 C83.2935807,58.3221761 82.6469013,58.7019293 81.9483469,58.8834916 L81.9483469,82.4195704 L82.6681685,82.4195704 C83.8033646,82.4195704 84.7356163,83.3488772 84.7356163,84.4857096 L84.7356163,85.9338608 C84.7356163,87.0683384 83.805721,88 82.6681685,88 L38.3387856,87.997641 C37.2035895,87.997641 36.2713378,87.0683342 36.2713378,85.9315017 L36.2713378,84.4833488 C36.2713378,83.3488711 37.2012332,82.4172095 38.3387856,82.4172095 L39.0515383,82.4172095 C39.0444573,82.3629642 39.0515383,59.309828 39.0515383,59.309828 C38.2302143,59.177747 37.5882717,58.7484822 37.1115727,58.1989589 C36.3374956,57.3168691 36,56.0738888 36,55.3922603 L36,51.0335573 C36,50.875531 36.04248,50.7245813 36.1156463,50.5925003 L42.2541279,37.5450112 L42.2659275,37.5214268 L42.2659275,34.9741203 C42.2659275,33.8750253 43.183981,33 44.2719906,33 L77.4052906,33 C78.4933002,33 79.4113536,33.8820897 79.4113536,34.9741203 L79.4113536,37.6841506 L84.9032404,50.6350319 C84.950439,50.7506051 84.9764007,50.8638173 84.9764007,50.9793844 L85,55.0314181 L85,55.0437537 Z M38.3341939,50.1355333 L43.4626656,50.1355333 L43.4626656,51.9469298 L37.8126042,51.9469298 L37.8126042,55.4069991 C37.8126042,55.7938047 38.0108481,56.5060941 38.4710409,57.0249988 C38.7377326,57.3268982 39.1059146,57.5509619 39.5826136,57.5509619 C40.3071477,57.5509619 40.8523609,57.3929357 41.2370431,57.1334894 C41.6288184,56.8740431 41.8836983,56.4825339 42.0158932,56.0226203 C42.0890535,55.7136443 42.3179838,55.454198 42.6389249,55.3574755 C43.1156601,55.2136023 43.6230757,55.4895565 43.7623395,55.9683388 C43.8945042,56.4211879 44.1729955,56.8079814 44.5364165,57.0792079 C44.8927868,57.3457307 45.3388297,57.5013961 45.822658,57.5013961 C46.3111929,57.5013961 46.7643349,57.3386542 47.120681,57.0721313 C47.4770513,56.8008928 47.7484858,56.4211758 47.8829765,55.9801008 C47.9561368,55.6711248 48.1850671,55.4069628 48.5060082,55.3102463 C48.9827435,55.1663731 49.4901591,55.4423273 49.6294228,55.9211096 C49.7615875,56.3739587 50.0400788,56.7607523 50.4034999,57.0319787 C50.7598701,57.2985016 51.205913,57.4541669 51.6897413,57.4541669 C52.1782763,57.4541669 52.6314182,57.291425 52.9877643,57.0249022 C53.3441346,56.7536637 53.6155691,56.3739467 53.7500598,55.9328716 C53.8232201,55.6238957 54.0521505,55.3597337 54.3730915,55.2630172 C54.8498268,55.119144 55.3572424,55.3950982 55.4965062,55.8738805 C55.6286708,56.3267296 55.9071621,56.7135231 56.2705832,56.9847496 C56.6269535,57.2512724 57.0729963,57.4069378 57.5568247,57.4069378 C58.0453596,57.4069378 58.4985016,57.2441959 58.8548477,56.9776731 C59.2112179,56.7064345 59.4826524,56.3267175 59.6171432,55.8856425 C59.6903035,55.5766665 59.9192338,55.3125045 60.2378186,55.215788 C60.7145538,55.0719149 61.2243257,55.347869 61.3612332,55.8266513 C61.4933978,56.2795005 61.7718891,56.666294 62.1353102,56.9375204 C62.4916805,57.2040433 62.9377233,57.3597087 63.4215517,57.3597087 C63.9100866,57.3597087 64.3632286,57.1969668 64.7195747,56.9304439 C65.075945,56.6592054 65.3473794,56.2794884 65.4818702,55.8384133 C65.5550305,55.5294374 65.7839608,55.2652754 66.1049019,55.1685589 C66.5816372,55.0246857 67.0890527,55.3006399 67.2283165,55.7794222 C67.3628435,56.2322713 67.6389725,56.6190648 68.0023935,56.8902913 C68.3587638,57.1568141 68.8048067,57.3124795 69.288635,57.3124795 C69.7795323,57.3124795 70.2326682,57.1497376 70.586658,56.8832148 C70.9430283,56.6119763 71.2144628,56.2322592 71.3489535,55.7911842 C71.4197575,55.4822082 71.6510441,55.2180463 71.9696289,55.1213298 C72.4463642,54.9774566 72.9561361,55.2534107 73.0930435,55.732193 C73.2252082,56.1850422 73.5036995,56.5718357 73.8671206,56.8430621 C74.2234908,57.109585 74.6695337,57.2652504 75.153362,57.2652504 C75.641897,57.2652504 76.0950389,57.1025085 76.451385,56.8359856 C76.8077553,56.5647471 77.0791898,56.1850301 77.2136805,55.743955 C77.2868408,55.4349791 77.5157712,55.1708171 77.8367122,55.0741006 C78.3134475,54.9302274 78.8208631,55.2061816 78.9601269,55.6849639 C79.0993725,56.1566817 79.3589832,56.5552795 79.7153534,56.826506 C80.0481244,57.0741601 80.4823615,57.2180333 81.0205058,57.2180333 C81.5774884,57.2180333 82.1155843,56.9633026 82.5144648,56.5670778 C82.9133211,56.1684739 83.1729015,55.6307065 83.1729015,55.0764192 L83.1611018,51.9725309 L47.6062434,51.9630995 L47.6062434,50.151703 L82.7146119,50.151703 L77.8811619,38.8612685 L43.6361683,38.8612685 L38.3259589,50.1589486 L38.3341939,50.1355333 Z M45.2206518,69.4311328 L54.0000096,69.4311328 L54.0000096,63.7422005 L45.2206518,63.7445614 L45.2206518,69.4311328 Z M54.0000096,71.2425293 L45.2206518,71.2425293 L45.2206518,82.4248838 L54.0000096,82.4248838 L54.0000096,71.2425293 Z M46.8585872,73.3864982 C47.3778085,73.3864982 47.7955515,73.7733099 47.7955515,74.2568139 C47.7955515,74.7332474 47.3778145,75.1247747 46.8585872,75.1247747 C46.3393599,75.1247747 45.9216229,74.7379691 45.9216229,74.2568139 C45.9216229,73.7780195 46.3393599,73.3864982 46.8585872,73.3864982 Z M43.4081685,82.4271782 L43.4081685,61.9336418 L55.8126138,61.9336418 L55.8126138,82.4271782 L80.076533,82.4271782 C80.083614,82.4201017 80.0954137,82.4106704 80.1001323,82.4035939 C80.1237377,82.3658564 80.1355373,82.3234033 80.1355373,82.2762285 L80.1355373,58.9146477 C79.5738361,58.7943589 79.0852891,58.5655795 78.6604892,58.2495029 C78.4622453,58.0985531 78.2734386,57.9287347 78.1105876,57.7424084 C77.943024,57.9287347 77.7612983,58.0914766 77.560686,58.2424263 C76.8951199,58.7495207 76.0620144,59.051396 75.1746534,59.051396 C74.292005,59.051396 73.4753936,58.7612888 72.8121838,58.2659745 C72.6139399,58.1150248 72.4322082,57.9522829 72.2622822,57.7706723 C72.0947186,57.9640751 71.898831,58.1386152 71.6958623,58.2966354 C71.0302962,58.8037298 70.1971907,59.1056051 69.3098297,59.1056051 C68.4271813,59.1056051 67.6129262,58.8154978 66.9473602,58.3201835 C66.7491162,58.1692338 66.5673845,58.0064919 66.3974585,57.8248813 C66.2275326,58.0182841 66.0340073,58.1928243 65.8286763,58.3508445 C65.1631102,58.8579389 64.3300047,59.1598141 63.4426437,59.1598141 C62.5599953,59.1598141 61.7433839,58.8697069 61.0801741,58.3743926 C60.8819302,58.2234429 60.6978422,58.060701 60.5302725,57.8790904 C60.3627089,58.0724932 60.1668212,58.2470333 59.9614902,58.4050535 C59.2959242,58.9121479 58.4628186,59.2140232 57.5754576,59.2140232 C56.6928092,59.2140232 55.8785541,58.923916 55.2129881,58.4286017 C55.0147441,58.277652 54.8330124,58.1149101 54.6630865,57.9332994 C54.4931605,58.1267022 54.2996352,58.3012424 54.0943042,58.4592626 C53.4287381,58.966357 52.5956326,59.2682323 51.7082716,59.2682323 C50.8256232,59.2682323 50.0113681,58.978125 49.345802,58.4828107 C49.1475581,58.331861 48.9658264,58.1691191 48.7959004,57.9875085 C48.6259744,58.1809113 48.4324491,58.3554514 48.2271181,58.5134716 C47.5615521,59.020566 46.7284465,59.3224413 45.8410855,59.3224413 C44.9584371,59.3224413 44.1441821,59.0323341 43.478616,58.5370198 C43.2850907,58.3931466 43.1033651,58.2280438 42.9357954,58.0535098 C42.7375514,58.270503 42.5133398,58.4709823 42.2537352,58.6455164 C41.8619599,58.9120392 41.4017188,59.1101577 40.8707039,59.2304465 L40.8730602,82.281065 C40.8730602,82.3282398 40.8848659,82.3777694 40.9084652,82.4084303 C40.9155462,82.4202285 40.9202648,82.4249442 40.9320645,82.4320207 L43.414887,82.4320207 L43.4081685,82.4271782 Z M77.6767251,62.2047475 L77.6767251,79.1533809 L58.0879604,79.1533809 L58.0879604,62.2047475 L77.6767251,62.2047475 Z M75.8641813,64.016144 L59.9029209,64.016144 L59.9029209,77.3419844 L75.866598,77.3419844 L75.8641813,64.016144 Z M82.6684706,84.2385748 L38.3390877,84.2385748 C38.1998421,84.2385748 38.0841957,84.3541479 38.0841957,84.4933054 L38.0841957,85.9414571 C38.0841957,86.0806147 38.1998421,86.1961878 38.3390877,86.1961878 L82.6684706,86.1961878 C82.8077162,86.1961878 82.9233626,86.0829755 82.9233626,85.9414571 L82.9233626,84.4933054 C82.9233626,84.351787 82.8077162,84.2385748 82.6684706,84.2385748 Z" id="Fill-1" fill="#0072FF"></path>
            </g>
        </g>
    </g>
</svg>