<?xml version="1.0" encoding="UTF-8"?>
<svg width="191px" height="65px" viewBox="0 0 191 65" version="1.1" xmlns="http://www.w3.org/2000/svg" xmlns:xlink="http://www.w3.org/1999/xlink">
    <!-- Generator: Sketch 56.2 (81672) - https://sketch.com -->
    <title>icon-easyexport</title>
    <desc>Created with Sketch.</desc>
    <g id="icon-easyexport" stroke="none" stroke-width="1" fill="none" fill-rule="evenodd">
        <g id="Group-6">
            <rect id="Rectangle" fill="#F5F6F9" x="0" y="0" width="190.4" height="64.8" rx="32.4"></rect>
            <g id="Group-11" transform="translate(28.000000, 22.400000)">
                <path d="M26.0635322,7.58866722 L26.0530883,7.58866722 C25.9086294,5.52115351 24.2325815,3.8900264 22.1840379,3.8900264 C21.507012,3.8900264 20.8699972,4.06887577 20.314787,4.38185987 C18.9902757,1.77777975 16.3378223,0 13.2816486,0 C8.98272348,0 5.48615984,3.51444364 5.35382902,7.89808917 C2.35673629,8.14311766 0,10.7167684 0,13.8594295 C0,17.1627996 2.60549151,19.84 5.81988304,19.84 L20.0167084,19.84 C19.6581721,18.986869 19.4597605,18.0478892 19.4597605,17.0624366 C19.4597605,13.1795528 22.5334002,10.0228354 26.31022,10.0228354 C28.6772487,10.0228354 30.7693679,11.2640487 32,13.1473653 C31.7197839,10.0317637 29.1699916,7.58848408 26.0633807,7.58848408 L26.0635322,7.58866722 Z M9.82159398,4.46949432 C9.77634308,4.50884283 9.73109217,4.54640111 9.68931662,4.58932551 C9.52223225,4.75387132 9.36732943,4.9291448 9.2472381,5.13303454 C8.78252075,5.91281632 8.69376552,6.74983063 8.79646672,7.64948022 C8.89393261,8.51332514 7.578132,8.50439686 7.48242607,7.64948022 C7.30141799,6.05232634 7.79919131,4.24950163 9.15500752,3.30873619 C9.85466778,2.82047403 10.5091039,3.98302697 9.82160735,4.46950348 L9.82159398,4.46949432 Z" id="Fill-1" fill="#2684FF"></path>
                <path d="M26.56,10.88 C23.5604262,10.88 21.12,13.4643039 21.12,16.6409272 C21.12,19.8175505 23.5603386,22.4 26.56,22.4 C29.5596614,22.4 32,19.8156961 32,16.6409272 C31.9982882,13.4643967 29.557954,10.88 26.56,10.88 Z" id="Path" fill="#7DF5A0"></path>
                <polygon id="Path" fill="#01A0FF" points="28.8 17.9792426 28.7946307 17.9842723 26.8045972 16.1184595 26.8045972 19.84 25.6664142 19.84 25.6664142 16.1184595 23.68 17.9792083 23.68 16.4721644 26.233719 14.08 28.7999908 16.4822495"></polygon>
            </g>
            <text id="Easy-export!" font-family="Montserrat-SemiBold, Montserrat" font-size="14.4" font-weight="500" line-spacing="17.6" letter-spacing="-0.487912226" fill="#1A2472">
                <tspan x="72.8" y="38.8">Easy export!</tspan>
            </text>
        </g>
    </g>
</svg>