<?xml version="1.0" encoding="UTF-8"?>
<svg width="37px" height="28px" viewBox="0 0 37 28" version="1.1" xmlns="http://www.w3.org/2000/svg" xmlns:xlink="http://www.w3.org/1999/xlink">
    <!-- Generator: Sketch 56.2 (81672) - https://sketch.com -->
    <title>icon-calendar</title>
    <desc>Created with Sketch.</desc>
    <defs>
        <polygon id="path-1" points="0 0.015186485 27.223476 0.015186485 27.223476 11.5520478 0 11.5520478"></polygon>
    </defs>
    <g id="icon-calendar" stroke="none" stroke-width="1" fill="none" fill-rule="evenodd">
        <g id="Google-calendar-icon" transform="translate(4.000000, 0.000000)">
            <path d="M7.21549,0.99613 C7.42129,0.96273 7.64409,0.95933 7.83689,1.05043 C8.12229,1.16543 8.32419,1.43873 8.39329,1.73323 C8.41689,1.94273 8.40999,2.16483 8.31099,2.35613 C8.13099,2.75163 7.65239,2.97973 7.23219,2.87003 C6.80099,2.77363 6.48029,2.35873 6.48449,1.91813 C6.47609,1.48923 6.80449,1.09743 7.21549,0.99613" id="Fill-1" fill="#FFFFFF"></path>
            <path d="M19.5465,0.99462 C19.7549,0.96192 19.9796,0.96162 20.1732,1.05722 C20.4935,1.19842 20.7107,1.53282 20.7338,1.87942 C20.7334,2.14622 20.6442,2.42482 20.4464,2.61152 C20.2783,2.78882 20.0361,2.88672 19.7944,2.89772 C19.4201,2.90302 19.0428,2.67952 18.8963,2.33032 C18.8014,2.14392 18.8132,1.92912 18.8253,1.72722 C18.8963,1.37112 19.1946,1.07702 19.5465,0.99462" id="Fill-3" fill="#FFFFFF"></path>
            <path d="M18.3091,15.57181 C18.7969,15.56961 19.2846,15.56921 19.772,15.57181 C19.7658,17.51031 19.7708,19.44911 19.7696,21.38751 C19.2838,21.38751 18.798,21.38791 18.3117,21.38721 C18.3107,19.44881 18.3159,17.51031 18.3091,15.57181" id="Fill-5" fill="#FFFFFF"></path>
            <path d="M19.5465,0.99462 C19.1946,1.07702 18.8963,1.37112 18.8253,1.72722 C18.8132,1.92912 18.8014,2.14392 18.8963,2.33032 C19.0428,2.67952 19.4201,2.90302 19.7944,2.89772 C20.0361,2.88672 20.2783,2.78882 20.4464,2.61152 C20.6442,2.42482 20.7334,2.14622 20.7338,1.87942 C20.7107,1.53282 20.4935,1.19842 20.1732,1.05722 C19.9796,0.96162 19.7549,0.96192 19.5465,0.99462 M7.2155,0.99612 C6.8045,1.09742 6.4761,1.48922 6.4845,1.91812 C6.4803,2.35882 6.801,2.77362 7.2322,2.87002 C7.6524,2.97972 8.131,2.75162 8.311,2.35612 C8.41,2.16482 8.4169,1.94272 8.3933,1.73322 C8.3242,1.43872 8.1223,1.16542 7.8369,1.05042 C7.6441,0.95932 7.4213,0.96272 7.2155,0.99612 M2.4975,0.14862 C2.8049,0.01382 3.145,-0.00668 3.4764,0.00162 C10.309,0.00242 17.1415,0.00162 23.9741,0.00132 C24.7196,-0.01128 25.4457,0.44952 25.7471,1.13242 C25.8742,1.40152 25.9281,1.70022 25.9229,1.99702 C25.9197,2.66132 25.9297,3.32552 25.9191,3.98942 C25.6985,3.90552 25.4609,3.88312 25.2267,3.88162 C17.4957,3.88312 9.7647,3.88232 2.0337,3.88272 C1.7888,3.88922 1.5383,3.89982 1.3072,3.98982 C1.2973,3.29972 1.3026,2.60962 1.30036823,1.92002 C1.2958,1.15932 1.7911,0.42902 2.4975,0.14862" id="Fill-7" fill="#C7C7C7"></path>
            <path d="M19.43185,9.75311 C19.54115,9.70791 19.66035,9.71021 19.77605,9.71931 C19.76925,11.66421 19.77685,13.60951 19.77225,15.55441 L19.77195,15.57181 C19.28455,15.56921 18.79685,15.56961 18.30905,15.57181 L18.30905,15.55481 C18.30835,14.21001 18.30795,12.86561 18.30945,11.52071 C17.33705,11.84411 16.36655,12.17281 15.39365,12.49431 C15.39065,12.05521 15.39595,11.61601 15.39105,11.17681 C16.73615,10.69741 18.08595,10.22981 19.43185,9.75311" id="Fill-9" fill="#C7C7C7"></path>
            <path d="M7.53244,10.45189 C8.14164,9.98769 8.90424,9.74779 9.66564,9.71929 C10.42094,9.69279 11.20284,9.81499 11.86374,10.19869 C12.38634,10.49819 12.80004,10.97759 13.02554,11.53549 C13.25024,12.09279 13.32164,12.70879 13.25324,13.30429 C13.10714,14.25819 12.37044,15.02879 11.50954,15.40979 C11.63254,15.44699 11.75244,15.49369 11.86714,15.55169 C11.79154,15.56619 11.71524,15.57459 11.63864,15.57219 C10.62284,15.56499 9.60714,15.57899 8.59224,15.56539 C8.58844,15.34489 8.58304,15.12399 8.59714,14.90389 C9.32934,14.88639 10.10174,14.97589 10.78684,14.65479 C11.34974,14.41719 11.76844,13.87899 11.84774,13.27129 C11.91604,12.69249 11.85754,12.05939 11.51444,11.56929 C11.24464,11.18139 10.78724,10.96659 10.32984,10.89859 C9.71264,10.81249 9.03594,10.87399 8.51784,11.24859 C8.00764,11.60729 7.73784,12.24039 7.75074,12.85489 C7.28074,12.86749 6.81054,12.85799 6.34024,12.85949 C6.34934,12.60139 6.36904,12.34169 6.43624,12.09159 C6.59794,11.43989 6.99694,10.85419 7.53244,10.45189" id="Fill-11" fill="#C7C7C7"></path>
            <path d="M1.30719,3.98978 C1.53839,3.89978 1.78879,3.88918 2.03369,3.88278 C9.76469,3.88238 17.49569,3.88308 25.22669,3.88158 C25.46089,3.88308 25.69849,3.90548 25.91909,3.98938 C26.58699,4.23038 27.12829,4.84908 27.19819,5.56568 C27.06229,5.07458 26.76849,4.61758 26.32929,4.34698 C26.01129,4.14838 25.64009,4.03378 25.26429,4.03718 C17.50859,4.04248 9.75259,4.04248 1.99649,4.04248 C1.41229,4.03188 0.82359,4.28388 0.45119,4.73868 C0.27059,4.93188 0.17609,5.18128 0.04969,5.40858 C0.17489,4.75498 0.68619,4.21028 1.30719,3.98978" id="Fill-13" fill="#4483EF"></path>
            <path d="M18.28175,15.55707 L18.30905,15.55487 L18.30905,15.57177 C18.31595,17.51027 18.31065,19.44877 18.31175,21.38727 C18.79795,21.38797 19.28385,21.38757 19.76965,21.38757 C19.77085,19.44917 19.76585,17.51027 19.77195,15.57177 L19.77225,15.55447 L19.79585,15.55627 C20.01025,15.58207 20.22665,15.56657 20.44225,15.56877 C22.26915,15.56767 24.09635,15.56537 25.92315,15.56877 C26.13415,18.62397 26.33275,21.67987 26.54155,24.73497 C26.56205,25.08417 26.60645,25.44287 26.50955,25.78517 L26.50085,25.79627 C26.41135,25.89677 26.35965,26.02207 26.29555,26.13897 C25.95285,26.69847 25.31595,27.07507 24.65545,27.06857 C17.36735,27.06437 10.07975,27.07197 2.79205,27.06927 C2.56355,27.06927 2.33045,27.08107 2.10765,27.02117 C1.60405,26.88377 1.14735,26.55387 0.89385,26.09267 C0.84065,25.99177 0.79135,25.88817 0.72035,25.79847 L0.71125,25.78597 C0.58945,25.32827 0.68845,24.85377 0.70365,24.38997 C0.90405,21.45127 1.09495,18.51157 1.29805,15.57297 C3.72695,15.56697 6.15615,15.56957 8.58495,15.57157 C8.58725,15.71117 8.58835,15.85087 8.58645,15.99057 C9.35625,16.00527 10.16165,15.91317 10.89085,16.21787 C11.38315,16.40987 11.78735,16.82147 11.94305,17.32967 C12.11455,17.89217 12.09485,18.51467 11.89325,19.06697 C11.70535,19.58457 11.25525,19.98467 10.72955,20.13917 C10.09115,20.32817 9.38015,20.31187 8.76525,20.04807 C8.28665,19.84347 7.89605,19.43127 7.74845,18.92877 C7.67815,18.70747 7.65085,18.47477 7.64665,18.24357 C7.18135,18.24667 6.71595,18.24557 6.25065,18.24397 C6.25935,18.83277 6.40215,19.43047 6.73085,19.92477 C7.08115,20.46527 7.62465,20.85997 8.22025,21.09157 C8.97515,21.38607 9.80945,21.45167 10.60765,21.32957 C11.38385,21.20647 12.14425,20.85887 12.67135,20.26407 C13.15575,19.72657 13.40625,19.00767 13.43925,18.29067 C13.48365,17.60627 13.32615,16.88747 12.89155,16.34387 C12.64705,16.02197 12.31115,15.78967 11.96805,15.58547 C12.13505,15.56467 12.30355,15.56917 12.47175,15.56997 C14.19265,15.56837 15.91365,15.57037 17.63455,15.56917 C17.85025,15.56467 18.06695,15.58247 18.28175,15.55707" id="Fill-15" fill="#4483EF"></path>
            <g id="Group-19" transform="translate(0.000000, 4.021900)">
                <mask id="mask-2" fill="white">
                    <use xlink:href="#path-1"></use>
                </mask>
                <g id="Clip-18"></g>
                <path d="M0.45124,0.71676 C0.82364,0.26206 1.41234,0.01006 1.99644,0.02066 C9.75254,0.02066 17.50864,0.02066 25.26424,0.015186485 C25.64004,0.01186 26.01124,0.12656 26.32934,0.32506 C26.76844,0.59566 27.06234,1.05266 27.19814,1.54386 C27.23574,1.71726 27.22554,1.89716 27.20574,2.07256 C26.78454,5.22866 26.34754,8.38286 25.93194,11.53976 C24.17874,11.53666 22.42554,11.54126 20.67264,11.53936 C20.38034,11.53706 20.08774,11.55026 19.79584,11.53436 L19.77224,11.53256 C19.77684,9.58756 19.76924,7.64236 19.77614,5.69746 C19.66034,5.68826 19.54114,5.68606 19.43184,5.73126 C18.08594,6.20796 16.73614,6.67556 15.39104,7.15496 C15.39594,7.59406 15.39064,8.03326 15.39364,8.47246 C16.36654,8.15096 17.33704,7.82226 18.30954,7.49886 C18.30794,8.84366 18.30834,10.18806 18.30914,11.53296 L18.28174,11.53516 C16.24464,11.55026 14.20674,11.53556 12.16964,11.54306 C12.06904,11.54086 11.96274,11.57196 11.86714,11.52976 C11.75244,11.47176 11.63254,11.42506 11.50954,11.38786 C12.37044,11.00686 13.10714,10.23626 13.25324,9.28246 C13.32164,8.68686 13.25024,8.07086 13.02554,7.51366 C12.80004,6.95566 12.38634,6.47626 11.86374,6.17686 C11.20284,5.79306 10.42094,5.67086 9.66564,5.69746 C8.90424,5.72586 8.14164,5.96576 7.53244,6.42996 C6.99694,6.83236 6.59794,7.41796 6.43624,8.06976 C6.36904,8.31986 6.34934,8.57946 6.34024,8.83756 C6.81054,8.83606 7.28074,8.84556 7.75074,8.83306 C7.73784,8.21856 8.00764,7.58536 8.51784,7.22676 C9.03594,6.85206 9.71264,6.79056 10.32984,6.87676 C10.78724,6.94466 11.24464,7.15956 11.51444,7.54746 C11.85754,8.03746 11.91604,8.67056 11.84774,9.24946 C11.76844,9.85716 11.34974,10.39536 10.78684,10.63296 C10.10174,10.95406 9.32934,10.86446 8.59714,10.88196 L8.57894,10.88236 C8.58654,11.10286 8.57774,11.32376 8.58384,11.54466 C6.15384,11.54086 3.72354,11.54006 1.29314,11.54506 C0.87864,8.45266 0.45774,5.36116 0.04094,2.26916 C-0.00686,1.97766 -0.02326,1.67516 0.04964,1.38666 C0.17614,1.15936 0.27054,0.90996 0.45124,0.71676" id="Fill-17" fill="#3664D0" mask="url(#mask-2)"></path>
            </g>
            <path d="M0.72038,25.79847 C0.79128,25.88807 0.84068,25.99177 0.89378,26.09267 C1.14738,26.55387 1.60398,26.88377 2.10768,27.02117 C2.33048,27.08107 2.56358,27.06927 2.79208,27.06927 C10.07968,27.07197 17.36738,27.06437 24.65548,27.06857 C25.31598,27.07507 25.95288,26.69847 26.29548,26.13897 C26.35968,26.02207 26.41138,25.89677 26.50088,25.79627 C26.33998,26.41907 25.83898,26.93607 25.22628,27.12817 C24.88468,27.24727 24.51848,27.21727 24.16348,27.22117 C17.06528,27.22117 9.96698,27.22077 2.86868,27.22077 C2.58558,27.22297 2.29598,27.22567 2.02338,27.13727 C1.39868,26.95197 0.88508,26.43007 0.72038,25.79847" id="Fill-20" fill="#3664D0"></path>
        </g>
    </g>
</svg>