<?xml version="1.0" encoding="UTF-8"?>
<svg width="63px" height="68px" viewBox="0 0 63 68" version="1.1" xmlns="http://www.w3.org/2000/svg" xmlns:xlink="http://www.w3.org/1999/xlink">
    <!-- Generator: Sketch 56.2 (81672) - https://sketch.com -->
    <title>icon-panel-logbook</title>
    <desc>Created with Sketch.</desc>
    <g id="icon-panel-logbook" stroke="none" stroke-width="1" fill="none" fill-rule="evenodd">
        <g id="Group-21" transform="translate(0.000000, 24.000000)">
            <g id="icon-" fill="#7B58FF" opacity="0.101422991">
                <circle id="Oval" cx="22" cy="22" r="22"></circle>
            </g>
            <path d="M15.1246722,19.3549171 C15.6316847,18.2589223 16.1074606,17.1320545 16.74147,15.8798419 C17.0902239,15.2855473 17.4702644,14.7529741 18.1677723,14.6902647 L28.8494713,14.6902647 C29.5470042,14.7529766 29.9270197,15.2845593 30.2757736,15.8798419 C30.909808,17.1321286 31.3855589,18.2589964 31.8925713,19.3549171 L15.1246722,19.3549171 Z M20.1322735,23.8623883 L26.852508,23.8623883 C27.2647604,23.8623883 27.5813025,24.2068085 27.5813025,24.6139629 C27.5813025,24.9892562 27.2647854,25.3337011 26.852508,25.3337011 L20.1322735,25.3337011 C19.752258,25.3337011 19.4034791,24.9892809 19.4034791,24.6139629 C19.4034791,24.2068332 19.752233,23.8623883 20.1322735,23.8623883 Z M18.1666969,13 C17.02565,13 16.3281171,13.4071296 15.3776658,14.7221504 L13.7931049,18.2589717 L11.3840143,18.2589717 C11.0039988,18.2589717 10.3064659,20.2001235 12.8425535,20.2628329 L11.9867621,22.2975672 C12.0180237,24.8958465 12.0180237,27.4630058 12.0180237,30.0294241 C12.0180237,30.5619726 12.4615377,31 13.0008118,31 L16.2970306,31 C16.83628,31 17.2475821,30.5619973 17.2475821,30.0294241 L17.2475821,27.9011073 L29.7366993,27.9011073 L29.7366993,30.0294241 C29.7366993,30.5619726 30.1802133,31 30.7194876,31 L34.0157063,31 C34.5549556,31 34.9662577,30.5619973 34.9662577,30.0294241 C34.9662577,27.4620179 34.9975192,24.8958465 34.9975192,22.2975672 L34.1417279,20.2628329 C36.709177,20.200121 35.9803076,18.2589717 35.6315286,18.2589717 L33.222438,18.2589717 L31.6378772,14.7221504 C30.6873258,13.4071543 29.9898179,13 28.8488461,13 L18.1666969,13 Z M31.4158451,22.4847075 C30.5600537,22.4847075 29.8312843,23.1735726 29.8312843,24.0495781 C29.8312843,24.8947351 30.5600787,25.6144486 31.4158451,25.6144486 C32.302898,25.6144486 33.0004059,24.8947104 33.0004059,24.0495781 C33.0004059,23.1735479 32.302873,22.4847075 31.4158451,22.4847075 Z M15.5984974,22.4847075 C16.4542888,22.4847075 17.1830582,23.1735726 17.1830582,24.0495781 C17.1830582,24.8947351 16.4542638,25.6144486 15.5984974,25.6144486 C14.7114445,25.6144486 14.0139366,24.8947104 14.0139366,24.0495781 C14.0139366,23.1735479 14.7114695,22.4847075 15.5984974,22.4847075 Z" id="Fill-1" fill="#492FAB"></path>
        </g>
    </g>
</svg>