<?xml version="1.0" encoding="UTF-8"?>
<svg width="63px" height="68px" viewBox="0 0 63 68" version="1.1" xmlns="http://www.w3.org/2000/svg" xmlns:xlink="http://www.w3.org/1999/xlink">
    <!-- Generator: Sketch 56.2 (81672) - https://sketch.com -->
    <title>icon-panel-seamless</title>
    <desc>Created with Sketch.</desc>
    <g id="icon-panel-seamless" stroke="none" stroke-width="1" fill="none" fill-rule="evenodd">
        <g id="icon-" transform="translate(0.000000, 24.000000)" fill="#62CB2C">
            <path d="M21.125,11 C20.46,11 19.8425,11.2375 19.415,11.665 C18.9875,12.0925 18.75,12.71 18.75,13.375 C18.75,14.04 19.1775,14.515 19.415,15.085 C19.48625,15.2275 19.48625,15.465 19.48625,15.75 L14,15.75 L14,30 L19.48625,30 C19.48625,29.715 19.4625,29.4775 19.415,29.335 C19.1775,28.765 18.75,28.29 18.75,27.625 C18.75,26.96 18.9875,26.3425 19.415,25.915 C19.8425,25.4875 20.46,25.25 21.125,25.25 C21.79,25.25 22.4075,25.4875 22.835,25.915 C23.2625,26.3425 23.5,26.96 23.5,27.625 C23.5,28.29 23.0725,28.765 22.835,29.335 C22.76375,29.4775 22.76375,29.715 22.76375,30 L28.25,30 L28.25,24.51375 C28.535,24.51375 28.7725,24.5375 28.915,24.585 C29.485,24.8225 29.96,25.25 30.625,25.25 C31.29,25.25 31.9075,25.0125 32.335,24.585 C32.7625,24.1575 33,23.54 33,22.875 C33,22.21 32.7625,21.5925 32.335,21.165 C31.9075,20.7375 31.29,20.5 30.625,20.5 C29.96,20.5 29.485,20.9275 28.915,21.165 C28.7725,21.23625 28.535,21.23625 28.25,21.23625 L28.25,15.75 L22.76375,15.75 C22.76375,15.465 22.7875,15.2275 22.835,15.085 C23.0725,14.515 23.5,14.04 23.5,13.375 C23.5,12.71 23.2625,12.0925 22.835,11.665 C22.4075,11.2375 21.79,11 21.125,11 Z" id="Fill-1"></path>
            <circle id="Oval" opacity="0.101422991" cx="22" cy="22" r="22"></circle>
        </g>
    </g>
</svg>