<?xml version="1.0" encoding="UTF-8"?>
<svg width="35px" height="30px" viewBox="0 0 35 30" version="1.1" xmlns="http://www.w3.org/2000/svg" xmlns:xlink="http://www.w3.org/1999/xlink">
    <!-- Generator: Sketch 56.2 (81672) - https://sketch.com -->
    <title>icon-taxtools-heart</title>
    <desc>Created with Sketch.</desc>
    <g id="icon-taxtools-heart" stroke="none" stroke-width="1" fill="none" fill-rule="evenodd">
        <g id="icon-" fill="#F8237F">
            <path d="M30.7663902,2.04313419 C29.1539181,0.729833983 27.0849095,0.00762084868 24.9401566,0.00762084868 C22.4641058,0.00762084868 20.0636658,0.981690763 18.3624913,2.67534208 C18.0546114,2.98117569 17.7676113,3.30757629 17.5014509,3.66224169 C15.4141407,0.93030619 11.9387861,-0.472999261 8.4842711,0.143812995 C5.62468962,0.65525069 3.37820957,2.20498573 1.80748365,4.74421263 C-0.407670055,8.32685559 -0.587679681,11.7834386 1.27261126,15.0165217 C2.2693102,16.7512938 3.56083751,18.4372473 5.21759401,20.1694535 C8.25725191,23.353718 11.8578452,26.376131 16.551855,29.6864554 C16.849295,29.894632 17.1702198,30 17.5015978,30 C18.0155971,30 18.3652432,29.7429982 18.537438,29.6170632 C22.7068483,26.6846555 26.1272316,23.8601488 28.9946948,20.9816916 C30.6175867,19.3522546 32.4596296,17.35023 33.8033229,14.8546899 C34.3799415,13.7855487 35.0374743,12.348886 34.998333,10.7066192 C34.909624,7.17279492 33.4876549,4.25834879 30.7663368,2.04295655 L30.7663902,2.04313419 Z" id="Fill-1"></path>
        </g>
    </g>
</svg>