<?xml version="1.0" encoding="UTF-8"?>
<svg width="120px" height="120px" viewBox="0 0 120 120" version="1.1" xmlns="http://www.w3.org/2000/svg" xmlns:xlink="http://www.w3.org/1999/xlink">
    <!-- Generator: Sketch 56.2 (81672) - https://sketch.com -->
    <title>Group 16</title>
    <desc>Created with Sketch.</desc>
    <g id="Page-1" stroke="none" stroke-width="1" fill="none" fill-rule="evenodd">
        <g id="Finstream-Draft" transform="translate(-1047.000000, -8660.000000)">
            <g id="Group-16" transform="translate(1047.000000, 8660.000000)">
                <g id="Group-29" fill="#F5FAFD">
                    <path d="M60,0 C26.8644,0 0,26.8644 0,60 C0,93.1356 26.8644,120 60,120 C93.1356,120 120,93.1356 120,60 C120,26.8644 93.1356,0 60,0 Z" id="Fill-1"></path>
                </g>
                <g id="Group-3" transform="translate(33.000000, 33.000000)" fill="#0072FF" stroke="#0072FF" stroke-width="0.1">
                    <path d="M13.1733,14.03784 C16.917444,14.03784 20.0815467,10.83159 20.0815467,7.02432 C20.0920662,3.269646 16.980732,0.21114 13.1733,0.21114 C9.365868,0.21114 6.26508,3.269754 6.26508,7.02432 C6.26508,10.831752 9.429156,14.03784 13.1733,14.03784 Z M13.1733,1.94076 C16.03152,1.94076 18.362376,4.218912 18.362376,7.024374 C18.362376,9.893124 15.989346,12.308382 13.1733,12.308382 C10.367838,12.308382 7.984224,9.893124 7.984224,7.024374 C7.984224,4.218912 10.31508,1.94076 13.1733,1.94076 Z" id="Fill-1"></path>
                    <path d="M53.78886,27 L53.78886,9.71352 L27.86454,9.71352 L27.86454,27 L33.91848,27 L33.91848,28.729674 L24.41556,28.729674 L24.41556,20.956374 C24.41556,15.334974 18.92052,13.510314 18.92052,13.510314 C18.92052,13.510314 16.20999,15.767352 13.18302,15.767352 C9.80802,15.767352 7.44552,13.510314 7.44552,13.510314 C7.44552,13.510314 1.95048162,15.250572 1.95048162,20.956374 L1.95048162,28.729674 L0.210223728,28.729674 L0.210223728,52.0592935 L3.66957162,52.0592935 L3.66957162,53.7889675 L5.39924562,53.7889675 L5.39924562,52.0592935 L48.610044,52.0592935 L48.610044,53.7889675 L50.339718,53.7889675 L50.339718,52.0592935 L53.78886,52.0592935 L53.78886,28.729674 L47.734596,28.729674 L47.734596,27 L53.78886,27 Z M3.6702207,20.94606 C3.6702207,18.604674 5.0520267,16.463628 7.150842,15.47208 C8.92269,16.769322 11.042622,17.48655 13.1729274,17.48655 C15.3033894,17.48655 17.4233214,16.779906 19.1950074,15.47208 C21.2938254,16.463466 22.6754694,18.604512 22.6754694,20.94606 L22.6754694,28.71936 L20.9457954,28.71936 L20.9457954,20.94606 L19.2161214,20.94606 L19.2161214,28.71936 L7.1190414,28.71936 L7.1190414,20.94606 L5.3998947,20.94606 L5.3998947,28.71936 L3.6702207,28.71936 L3.6702207,20.94606 Z M52.0592454,50.3296205 L1.94076486,50.3296205 L1.94076486,37.36746 L52.0592454,37.36746 L52.0592454,50.3296205 Z M52.0592454,30.45924 L52.0592454,35.648316 L1.94076486,35.648316 L1.94076486,30.45924 L52.0592454,30.45924 Z M35.6378454,28.729566 L35.6378454,26.999892 L46.0053054,26.999892 L46.0053054,28.729566 L35.6378454,28.729566 Z M29.5947054,25.270218 L29.5947054,11.443518 L52.0597854,11.443518 L52.0597854,25.270218 L29.5947054,25.270218 Z" id="Fill-2"></path>
                </g>
            </g>
        </g>
    </g>
</svg>