<?xml version="1.0" encoding="UTF-8"?>
<svg width="63px" height="68px" viewBox="0 0 63 68" version="1.1" xmlns="http://www.w3.org/2000/svg" xmlns:xlink="http://www.w3.org/1999/xlink">
    <!-- Generator: Sketch 56.2 (81672) - https://sketch.com -->
    <title>icon-panel-webapp</title>
    <desc>Created with Sketch.</desc>
    <g id="icon-panel-webapp" stroke="none" stroke-width="1" fill="none" fill-rule="evenodd">
        <g id="icon-" transform="translate(0.000000, 24.000000)">
            <circle id="Oval" fill="#E5FAFF" opacity="0.479282924" cx="22" cy="22" r="22"></circle>
            <g id="Group-4" transform="translate(16.000000, 12.000000)" fill="#0072FF">
                <path d="M5.818446,18.8455672 C5.53309488,18.8455672 5.2837974,18.6315436 5.2837974,18.3109194 C5.2837974,18.0255683 5.53307436,17.812345 5.818446,17.812345 L7.3149696,17.812345 C7.60032072,17.812345 7.8496182,18.0263686 7.8496182,18.3109194 C7.8496182,18.6315436 7.60034124,18.8455672 7.3149696,18.8455672 L5.818446,18.8455672 Z" id="Fill-1"></path>
                <polygon id="Fill-2" points="1.579014 2.422386 11.5535808 2.422386 11.5535808 17.028522 1.579014 17.028522"></polygon>
                <path d="M2.0423556,0 L11.0912652,0 C12.1597416,0 13.0502891,0.89052696 13.0502891,1.95902388 L13.0502891,18.5601143 C13.0502891,19.6285907 12.1597621,20.5191382 11.0912652,20.5191382 L2.0423556,20.5191382 C0.9738792,20.5191382 0.08333172,19.6286112 0.08333172,18.5601143 L0.08333172,1.95902388 C0.08333172,0.89054748 0.97385868,0 2.0423556,0 Z M11.0912652,0.89052696 L2.0423556,0.89052696 C1.47245364,0.89052696 0.9738792,1.3891014 0.9738792,1.95900336 L0.9738792,18.5600938 C0.9738792,19.1299957 1.47245364,19.5933168 2.0423556,19.5933168 L11.0912652,19.5933168 C11.6611672,19.5933168 12.1597416,19.1300162 12.1597416,18.5600938 L12.1597416,1.95900336 C12.1597416,1.3891014 11.6611672,0.89052696 11.0912652,0.89052696 Z" id="Fill-3"></path>
            </g>
        </g>
    </g>
</svg>