<?xml version="1.0" encoding="UTF-8"?>
<svg width="63px" height="68px" viewBox="0 0 63 68" version="1.1" xmlns="http://www.w3.org/2000/svg" xmlns:xlink="http://www.w3.org/1999/xlink">
    <!-- Generator: Sketch 56.2 (81672) - https://sketch.com -->
    <title>icon-panel-emails</title>
    <desc>Created with Sketch.</desc>
    <g id="icon-panel-emails" stroke="none" stroke-width="1" fill="none" fill-rule="evenodd">
        <g id="icon-" transform="translate(0.000000, 24.000000)" fill="#00CCFF">
            <path d="M14.3571429,15 C13.6052405,15 13,15.6458828 13,16.4482759 L13,27.5517241 C13,28.3541172 13.6052405,29 14.3571429,29 L30.6428571,29 C31.3947595,29 32,28.3541172 32,27.5517241 L32,16.4482759 C32,15.6458828 31.3947595,15 30.6428571,15 L14.3571429,15 Z M15.375,17.4062621 C15.5199021,17.3921197 15.6073655,17.4571786 15.7355024,17.5344948 L21.8356333,23.4106328 C22.2182119,23.7792914 22.7669048,23.7792914 23.1503655,23.4106328 L29.2645202,17.5344948 C29.4403471,17.3647762 29.745175,17.3808038 29.9042095,17.5684376 C30.063244,17.7560714 30.0482295,18.0813686 29.8724026,18.2510824 L26.111986,21.8642893 L29.8866526,25.7565307 C30.060713,25.9309659 30.0677814,26.2600238 29.9016739,26.4429652 C29.7355642,26.6259066 29.4271942,26.6296576 29.2575513,26.4495645 L25.440587,22.5121852 L23.7582954,24.1339645 C23.0417239,24.8232231 21.9443608,24.8166093 21.2276763,24.1264214 L19.5595215,22.5197524 L15.7425573,26.449649 C15.5729144,26.6287983 15.2645489,26.6259693 15.0984346,26.4430497 C14.9323204,26.26013 14.9393956,25.93106 15.1134537,25.7566152 L18.8808823,21.8718566 L15.1274775,18.2511669 C14.9949435,18.1285921 14.9401646,17.9202117 14.9922925,17.7420014 C15.0444226,17.5637959 15.2016951,17.4261324 15.3748711,17.4063393 L15.375,17.4062621 Z" id="Fill-1"></path>
            <circle id="Oval" opacity="0.101422991" cx="22" cy="22" r="22"></circle>
        </g>
    </g>
</svg>