<?xml version="1.0" encoding="UTF-8"?>
<svg width="63px" height="68px" viewBox="0 0 63 68" version="1.1" xmlns="http://www.w3.org/2000/svg" xmlns:xlink="http://www.w3.org/1999/xlink">
    <!-- Generator: Sketch 56.2 (81672) - https://sketch.com -->
    <title>icon-panel-relationships</title>
    <desc>Created with Sketch.</desc>
    <g id="icon-panel-relationships" stroke="none" stroke-width="1" fill="none" fill-rule="evenodd">
        <g id="icon-" transform="translate(0.000000, 24.000000)" fill="#F8237F">
            <path d="M28.7678673,15.9807044 C27.9938807,15.3503203 27.0007566,15.003658 25.9712752,15.003658 C24.7827708,15.003658 23.6305596,15.4712116 22.8139958,16.2841642 C22.6662135,16.4309643 22.5284534,16.5876366 22.4006964,16.757876 C21.3987876,15.446547 19.7306173,14.7729604 18.0724501,15.0690302 C16.699851,15.3145203 15.6215406,16.0583931 14.8675922,17.2772221 C13.8043184,18.9968907 13.7179138,20.6560505 14.6108534,22.2079304 C15.0892689,23.040621 15.709202,23.8498787 16.5044451,24.6813377 C17.9634809,26.2097846 19.6917657,27.6605429 21.9448904,29.2494986 C22.0876616,29.3494234 22.2417055,29.4 22.4007669,29.4 C22.6474866,29.4 22.8153168,29.2766391 22.8979702,29.2161903 C24.8992872,27.8086346 26.5410712,26.4528714 27.9174535,25.071212 C28.6964416,24.2890822 29.5806222,23.3281104 30.225595,22.1302511 C30.5023719,21.6170634 30.8179877,20.9274653 30.7991999,20.1391772 C30.7566195,18.4429416 30.0740743,17.0440074 28.7678417,15.9806191 L28.7678673,15.9807044 Z" id="Fill-1"></path>
            <circle id="Oval" opacity="0.101422991" cx="22" cy="22" r="22"></circle>
        </g>
    </g>
</svg>