<?xml version="1.0" encoding="UTF-8"?>
<svg width="145px" height="110px" viewBox="0 0 145 110" version="1.1" xmlns="http://www.w3.org/2000/svg" xmlns:xlink="http://www.w3.org/1999/xlink">
    <!-- Generator: Sketch 56.2 (81672) - https://sketch.com -->
    <title>img-howitworks-invite</title>
    <desc>Created with Sketch.</desc>
    <defs>
        <polygon id="path-1" points="0.0468760647 0.0273958696 109.92405 0.0273958696 109.92405 86.8499717 0.0468760647 86.8499717"></polygon>
    </defs>
    <g id="img-howitworks-invite" stroke="none" stroke-width="1" fill="none" fill-rule="evenodd">
        <g id="Group-48">
            <path d="M84.445065,41.680965 C85.480215,44.744115 92.611215,60.822015 94.777215,62.906415 C93.224415,64.725615 91.671465,66.544965 90.118665,68.364165 C87.787665,66.838815 83.013615,49.624665 82.272315,43.726815 L84.445065,41.680965 Z" id="Fill-1" fill="#7FB8FF"></path>
            <path d="M80.42106,37.816845 C79.51641,37.395045 78.52641,37.147245 77.52786,37.115145 C77.12916,37.102245 76.72911,37.124445 76.33461,37.184595 C76.13781,37.214595 75.34761,37.349295 75.47406,37.551195 C75.54111,37.657995 75.63981,37.695645 75.75291,37.735095 C76.29066,37.922745 76.82736,38.113695 77.36271,38.307945 C77.79111,38.463645 78.21861,38.621145 78.64536,38.781045 C78.79041,38.835345 78.31761,39.124995 78.29691,39.142245 C78.09936,39.308745 77.95356,39.533445 77.85726,39.771345 C77.66706,40.242345 77.66931,40.792845 77.84106,41.268645 C78.11841,42.036345 78.75936,42.621795 79.45761,43.044945 C80.53791,43.699245 81.80886,44.034795 83.07156,43.998945 C83.69121,43.981395 84.36966,43.250895 84.51246,42.669795 C84.65736,42.079545 84.41331,41.476395 84.10746,40.980045 C83.38176,39.802695 82.18761,38.851245 81.01686,38.142195 C80.82351,38.025045 80.62626,37.912545 80.42106,37.816845" id="Fill-3" fill="#7FB8FF"></path>
            <path d="M68.514585,46.99365 L75.578985,47.1083301 C75.964485,47.11455 76.247535,46.74825 76.144185,46.37685 L72.462585,33.12795 C72.394185,32.8815 72.171585,32.70945 71.915985,32.7054 L64.851735,32.5905699 C64.466085,32.58435 64.183035,32.9508 64.286385,33.32205 L67.967985,46.5711 C68.036385,46.8174 68.258835,46.98945 68.514585,46.99365" id="Fill-5" fill="#05326A"></path>
            <g id="Group-9" transform="translate(34.500000, 22.683000)">
                <mask id="mask-2" fill="white">
                    <use xlink:href="#path-1"></use>
                </mask>
                <g id="Clip-8"></g>
                <path d="M1.488315,74.66553 C2.732115,77.60553 4.588815,79.85508 6.850365,81.56298 C14.747715,87.55593 27.602115,87.00243 36.785115,86.65713 C54.894615,85.97283 73.283865,84.09228 90.393615,77.77203 C99.304215,74.48058 106.439565,67.71543 108.835965,58.34643 C110.755515,50.84208 109.884465,42.89223 108.162765,35.33988 C106.606365,28.51338 104.337615,21.78288 100.674315,15.81603 C95.959065,8.13528 86.344815,-2.06952 76.372365,0.40518 C72.216315,1.43658 68.866965,4.51308 66.204465,7.86693 C63.044565,11.84748 60.576465,16.37583 58.944165,21.18903 C57.346365,25.90008 56.500065,30.97143 53.767515,35.12853 C50.525115,40.06128 45.006915,42.91503 39.340365,44.06193 C33.132315,45.31833 26.942715,43.67118 20.686965,44.83203 C14.015715,46.06983 7.695315,49.71813 3.838965,55.30023 C-0.023385,60.88248 -1.165935,68.42268 1.488315,74.66553" id="Fill-7" fill="#0054BC" mask="url(#mask-2)"></path>
            </g>
            <path d="M98.93223,49.967295 C98.77578,55.417245 97.48443,61.004895 93.46068,64.920795 C90.41178,67.888395 86.32878,69.546045 82.17588,70.226145 C75.75513,71.277495 68.45418,70.265745 62.53833,67.102995 C66.31143,67.202745 70.07268,67.507545 73.84038,66.744945 C79.50693,65.598045 85.02513,62.744295 88.26753,57.811545 C91.00008,53.654295 91.84638,48.583095 93.44418,43.871895 C94.53768,40.647495 96.03663,37.569645 97.83693,34.679745 C98.30628,39.770145 99.07923,44.842395 98.93223,49.967295" id="Fill-10" fill="#05326A"></path>
            <path d="M65.551065,108.087015 C70.447665,107.433615 75.301515,106.478865 80.158665,105.585615 C85.170465,104.663715 90.174915,103.688865 95.133315,102.509565 C103.234365,100.582815 111.277065,98.118465 118.760415,94.420815 C125.158515,91.259265 131.180565,87.159915 135.960615,81.819015 C139.652265,77.694015 142.438815,72.906765 144.222765,67.721865 C144.604515,72.198165 144.446565,76.688265 143.335965,81.029415 C140.939565,90.398415 133.804215,97.163565 124.893615,100.455015 C107.783865,106.775265 89.394465,108.655815 71.285115,109.340115 C66.512415,109.519665 60.750315,109.746765 55.205415,109.090365 C58.663665,108.865515 62.115465,108.545565 65.551065,108.087015" id="Fill-12" fill="#00479F"></path>
            <path d="M105.69153,66.80874 C110.57703,60.11454 113.80083,52.21704 114.99558,44.01609 C115.30998,41.85744 115.50993,39.60534 116.60538,37.71894 C118.54233,34.38384 123.06633,34.23954 122.57163,38.69409 C122.16723,42.33504 120.73428,46.10184 119.22423,49.41264 C117.66183,52.83849 115.68123,56.07309 113.35713,59.03484 C111.13863,61.86234 107.74458,63.99579 105.69153,66.80874" id="Fill-14" fill="#05326A"></path>
            <path d="M3.86694,96.033105 C4.22949,96.928755 5.31699,97.331805 6.28104,97.265055 C7.24494,97.198155 8.14224,96.776355 9.06144,96.478755 C10.73484,95.936505 12.53829,95.801055 14.27394,96.086655 C15.59889,96.304905 17.18604,96.684855 18.10554,95.706105 C18.89979,94.860855 18.66534,93.529305 18.69894,92.369955 C18.75474,90.454305 19.74759,88.587855 21.30489,87.470955 C21.02274,87.672255 20.00724,85.721655 19.60764,85.624905 C18.75624,85.419105 17.91924,84.932505 17.33319,85.529505 C16.09899,86.786805 14.64504,89.557755 13.27269,90.707805 C10.49619,93.034755 7.29444,94.856805 3.86694,96.033105" id="Fill-16" fill="#70ADF9"></path>
            <path d="M0.023265,105.8124 C0.204915,106.4472 1.148265,106.35885 1.647915,106.32675 C2.370165,106.28025 3.110265,106.3215 3.815415,106.2333 C5.018265,106.0827 6.174465,106.371 7.367865,106.43715 C8.544315,106.50255 9.730365,106.39215 10.874415,106.11045 C12.493965,105.71175 13.757115,105.79005 15.395415,106.15785 C16.626765,106.4343 18.724215,106.55625 19.497165,105.279 C20.019465,104.4156 19.592415,103.3158 19.601115,102.30675 C19.614465,100.71255 20.741865,99.35325 21.938715,98.29995 C23.832315,96.6333 25.832415,95.17395 25.933965,92.4135 C26.007465,90.4188 23.235315,88.56135 21.388815,89.11305 C19.936965,89.5467 19.238115,91.13925 18.581415,92.50455 C17.708115,94.3203 16.580565,96.00645 15.219315,97.4925 C13.827165,99.0123 11.582415,99.92055 9.777915,100.8585 C9.777915,101.02665 8.037465,101.76315 7.822965,101.8746 C7.102665,102.249 6.382365,102.6234 5.662065,102.9978 C4.976115,103.35435 4.289865,103.7106 3.604065,104.06745 C2.911965,104.4276 2.285565,104.5374 1.509165,104.6373 C1.150665,104.6835 0.778815,104.72475 0.467715,104.9088 C0.156615,105.09255 -0.076185,105.465 0.023265,105.8124" id="Fill-18" fill="#7FB8FF"></path>
            <path d="M37.919865,74.927355 C32.891265,77.881155 31.873665,76.432305 27.190665,79.904055 C26.310465,80.556405 22.930515,82.795755 21.875865,83.122155 C21.257415,83.313405 19.635765,85.292205 19.149315,85.575855 C18.166815,86.149155 15.507615,88.728555 15.468915,88.949055 C15.369915,89.513655 18.663315,93.020505 20.224515,93.903405 C23.138715,95.551305 25.254615,97.593855 28.503765,98.563455 C28.940565,98.693805 34.142415,91.257255 39.197865,87.484455 C42.778515,84.812205 46.420665,82.045005 50.654265,80.545755 C54.138315,79.311855 57.188715,77.370555 60.978765,77.068305 C63.527265,76.865205 66.124365,76.618305 68.692965,76.463805 C69.726015,76.401705 76.188165,75.644055 76.706115,76.468455 C74.814315,73.458105 72.922365,70.447755 71.030415,67.437255 C69.413415,64.864305 68.965215,63.468555 65.845815,64.031055 C59.568915,65.162655 53.486415,67.201005 47.685165,69.834105 C44.340465,71.352105 41.086515,73.067355 37.919865,74.927355" id="Fill-20" fill="#53A0FF"></path>
            <path d="M117.127995,9.55122 C117.562545,11.22582 117.937245,12.78087 118.876545,14.26827 C120.123945,16.24392 121.442745,18.29082 123.444495,19.49562 C124.720995,20.26377 126.193095,20.63592 127.540095,21.27237 C129.480795,22.18917 131.212845,23.76327 131.830695,25.81887 C132.448545,27.87447 131.687895,30.39882 129.786795,31.39542 C129.054795,31.77912 128.218095,31.92222 127.474995,32.28417 C126.732195,32.64612 126.046695,33.34722 126.101145,34.17162 C126.181695,35.39307 127.463295,36.04962 127.288095,37.37547 C127.039845,39.25467 124.983795,39.66462 123.625245,40.43772 C121.702095,41.53257 119.956245,43.85667 117.801495,44.42217 C109.726395,46.54167 111.710595,36.35487 107.876445,33.33567 C106.425945,32.19357 104.395845,32.25012 102.642645,31.67142 C98.799645,30.40257 96.743745,26.31777 95.226195,22.56627 C93.534495,18.38427 91.982595,13.84362 92.965545,9.44097 C93.622095,6.50007 95.434545,3.83367 97.927545,2.14122 C105.156045,-2.76648 114.961845,1.20492 117.127995,9.55122" id="Fill-22" fill="#0062DB"></path>
            <path d="M80.759295,66.723495 C82.497045,68.193495 83.312445,70.437195 84.270495,72.502095 C85.228695,74.561295 86.573745,76.691895 88.733895,77.394195 C90.316995,77.905995 92.048745,77.548845 93.631845,77.037045 C100.219845,74.900595 105.772245,70.151595 109.634595,64.408395 C113.502945,58.671495 115.776345,51.976545 117.091545,45.180195 C118.019895,40.395345 118.281795,34.212045 113.562495,31.230495 C111.068895,29.653395 107.807595,30.117645 105.016545,31.081695 C101.404095,32.325495 97.791795,34.354845 95.083995,37.074645 C92.500995,39.663345 88.846995,42.745995 88.710195,46.715445 C88.704195,46.846395 88.704195,46.977345 88.710195,47.108295 C88.769595,49.298445 89.959845,51.262245 90.055245,53.422545 C90.126495,55.154445 89.674245,57.368295 89.091045,58.992945 C88.740045,59.962995 88.263795,60.891345 87.686595,61.748295 C87.127095,62.569695 86.478495,63.325395 85.752495,63.991995 C85.198845,64.497795 81.538995,67.384095 80.759295,66.723495" id="Fill-24" fill="#05326A"></path>
            <path d="M87.686625,61.748295 C88.180425,62.658795 88.573425,63.599145 88.692375,64.628745 C91.430025,62.527845 93.340275,59.373795 93.923475,55.975695 C94.209075,54.351045 94.137675,52.506045 93.048525,51.268245 C92.435775,50.571945 91.572675,50.155395 90.828675,49.601745 C89.852775,48.994845 89.192175,48.102045 88.710225,47.108295 C88.769625,49.298445 89.959875,51.262245 90.055275,53.422545 C90.126525,55.154445 89.674275,57.368295 89.091075,58.992945 C88.739925,59.962995 88.263825,60.891345 87.686625,61.748295" id="Fill-26" fill="#05326A"></path>
            <path d="M110.88168,30.16275 C107.62203,32.08635 105.63843,39.09135 93.48108,38.6514 C96.84153,35.4864 100.60203,30.28905 101.75358,27.6183 C102.56103,25.7454 103.38573,23.76915 103.17963,21.7401 C102.97338,19.71075 101.89488,18.4038 99.48183,17.9994 C101.23068,16.9674 103.65933,16.80735 105.59133,16.0971 C106.39443,15.8019 107.39508,15.99375 107.39508,15.99375 C107.39508,15.99375 107.29548,25.014 110.88168,30.16275" id="Fill-28" fill="#7FB8FF"></path>
            <path d="M101.92995,27.204495 C102.6756,25.454895 103.37055,23.620695 103.1796,21.739995 C102.97335,19.710795 101.89485,18.403845 99.4818,17.999295 C101.23065,16.967445 103.6593,16.807395 105.5913,16.096995 C106.3944,15.801795 107.39505,15.993795 107.39505,15.993795 C107.39505,15.993795 107.373,18.426195 107.8476,21.480795 C107.13765,24.651345 104.5155,25.909695 101.92995,27.204495" id="Fill-30" fill="#7FB8FF"></path>
            <path d="M81.69504,80.398545 C79.17489,80.312745 76.64409,80.023845 74.08959,79.723395 C68.27859,79.039995 62.46759,78.356895 56.65674,77.673495 C51.67479,77.087745 46.92684,76.284195 41.95764,76.850595 C34.00209,77.757195 28.85634,79.920495 22.05534,83.755545 C20.98764,84.357645 17.68404,86.778495 17.68404,86.778495 C17.05614,86.313645 15.71154,85.129695 15.21759,84.126345 C14.87259,83.425395 23.11584,77.084595 26.79174,74.026545 C35.83794,66.501045 47.05569,61.716645 58.68159,60.044745 C64.49649,59.208195 70.42674,59.147295 76.25259,59.915445 C81.45909,60.601995 88.02684,61.852995 92.24019,65.194095 C94.31949,66.842895 100.86519,71.606745 98.53704,74.957895 C96.59814,77.748645 93.26409,78.902445 90.10134,79.663695 C87.30039,80.337795 84.50439,80.494245 81.69504,80.398545" id="Fill-32" fill="#378FFD"></path>
            <path d="M59.9703,87.873195 C69.98355,88.504095 80.11425,89.128695 89.98635,87.338595 C94.9119,86.445195 99.7506,84.906645 104.1939,82.585245 C107.1006,81.066645 115.0566,76.797345 115.4019,73.174245 C108.5961,71.179995 99.55095,72.428595 92.6844,73.642845 C85.1391,74.976945 77.7906,77.437395 70.9743,80.938995 C67.113,82.922745 63.42255,85.240845 59.9703,87.873195" id="Fill-34" fill="#00479F"></path>
            <path d="M112.35053,76.160595 C98.79773,74.978445 84.94823,77.383095 72.58718,83.064795" id="Stroke-36" stroke="#308CFF" stroke-width="1.7853" opacity="0.404203869" stroke-linecap="round"></path>
            <path d="M67.15277,83.42799 C61.07087,81.13299 53.92097,81.89184 48.45617,85.41219" id="Stroke-38" stroke="#378FFD" stroke-width="1.7853" opacity="0.404203869" stroke-linecap="round"></path>
            <path d="M95.890395,19.74507 C96.652845,21.57087 97.709895,23.14722 99.093495,23.90022 C102.586845,25.80177 106.054845,22.83072 108.134295,20.19552 C110.199045,17.57892 111.317745,14.31342 111.091545,11.16072 C110.958045,9.29982 110.441295,6.75237 108.910395,5.55702 C107.401245,4.37832 105.199545,3.73422 103.205445,3.68907 C100.952895,3.63807 97.971045,4.32117 96.423045,6.04137 C94.937895,7.69167 94.335345,10.11282 94.3312701,12.15252 C94.327245,14.11077 94.817145,17.17512 95.890395,19.74507" id="Fill-40" fill="#7FB8FF"></path>
            <path d="M100.433325,8.20203 C101.565675,9.68928 103.404525,10.43373 104.842125,11.62818 C107.534625,13.86528 107.428575,16.83363 107.729775,20.68983 C111.065925,18.77388 113.435775,15.93873 114.144975,12.15753 C114.854025,8.37618 113.464575,4.17318 110.381475,1.87203 C107.057475,-0.60897 102.148725,-0.51927 98.718375,1.81263 C95.288175,4.14453 93.412425,8.44653 93.686325,12.58533 C93.429825,11.74203 93.911925,10.83198 94.566975,10.24203 C95.222025,9.65208 96.040425,9.27798 96.749325,8.75418 C98.442225,7.50303 99.276375,5.55558 99.648675,3.54168 C99.171525,5.10633 99.435375,6.89148 100.433325,8.20203" id="Fill-42" fill="#0062DB"></path>
            <path d="M112.77273,39.61362 C113.46993,41.55597 113.00988,43.71147 112.39233,45.68052 C109.11678,56.12472 101.37633,65.08617 91.51953,69.84567 C89.75943,70.69542 87.79848,71.43102 85.88793,71.01972 C83.94873,70.60227 82.45128,69.08802 81.19338,67.55427 C78.90843,64.76877 75.63093,51.53292 73.32123,48.59157 C72.25698,47.23602 71.04138,45.97452 70.25823,44.43972 C69.31623,42.59367 69.02673,40.57272 68.84958,38.51292 C68.83428,38.33547 69.05373,38.23557 69.16758,38.37267 C70.54368,40.02942 73.88193,42.45057 75.29763,43.30962 L74.17098,39.51852 C75.60243,40.42302 76.90308,41.76522 77.48703,43.79442 C77.96388,45.45207 77.84178,47.22102 78.14028,48.91977 C78.63963,51.76077 84.19488,61.61547 85.67148,61.61607 C86.55723,61.61652 87.34983,61.09557 88.06458,60.57267 C94.09278,56.16132 98.92203,50.12817 101.90598,43.28022 C102.55458,41.79177 103.12893,40.24587 104.10513,38.94837 C106.30038,36.03057 111.35538,35.66607 112.77273,39.61362" id="Fill-44" fill="#7FB8FF"></path>
            <path d="M114.37959,43.78917 C112.80219,42.87327 111.83919,41.15232 111.36234,39.39177 C110.88549,37.63092 110.82339,35.78952 110.61084,33.97782 C110.22669,30.70602 109.34814,27.51597 108.52674,24.32577 C108.00039,22.28067 107.62509,19.76712 109.19619,18.35592 C114.47379,22.25592 118.04109,28.14072 120.10884,34.36857 C121.01019,37.08357 121.21104,39.66927 119.92554,42.28722 C118.91184,44.35107 116.42214,44.97507 114.37959,43.78917" id="Fill-46" fill="#0062DB"></path>
        </g>
    </g>
</svg>