<?xml version="1.0" encoding="UTF-8"?>
<svg width="184px" height="151px" viewBox="0 0 184 151" version="1.1" xmlns="http://www.w3.org/2000/svg" xmlns:xlink="http://www.w3.org/1999/xlink">
    <!-- Generator: Sketch 56.2 (81672) - https://sketch.com -->
    <title>img-howitworks-collaborate</title>
    <desc>Created with Sketch.</desc>
    <g id="img-howitworks-collaborate" stroke="none" stroke-width="1" fill="none" fill-rule="evenodd">
        <g id="Accountant">
            <polygon id="Fill-4" fill="#0062DB" points="81.7614 83.349 100.273127 148.4406 102.4002 148.4406 87.2633949 83.349"></polygon>
            <polygon id="Fill-6" fill="#0062DB" points="62.3133 83.349 43.8019508 148.4406 41.6745 148.4406 56.8114175 83.349"></polygon>
            <path d="M72.4344605,102.0033 C55.2266107,102.0033 41.2776,88.0540568 41.2776,70.8468605 C41.2776,53.6396642 55.2266107,39.69 72.4344605,39.69 C89.6414683,39.69 103.5909,53.6396642 103.5909,70.8468605 C103.5909,88.0540568 89.6414683,102.0033 72.4344605,102.0033 Z" id="Fill-8" fill="#05326A"></path>
            <path d="M88.9056,83.4645556 C88.9056,85.5304411 88.5018364,87.4979511 87.7704181,89.3025 L58.6856819,89.3025 C57.9551235,87.4979511 57.5505,85.5304411 57.5505,83.4645556 C57.5505,74.8498557 64.5679881,67.8699 73.22848,67.8699 C81.883812,67.8699 88.9056,74.8498557 88.9056,83.4645556" id="Fill-23" fill="#0051B4"></path>
            <path d="M76.9986,83.349 C76.9986,85.75985 75.04355,87.7149 72.6327,87.7149 C70.2214134,87.7149 68.2668,85.75985 68.2668,83.349 C68.2668,80.9377134 70.2214134,78.9831 72.6327,78.9831 C75.04355,78.9831 76.9986,80.9377134 76.9986,83.349" id="Fill-24" fill="#40327A"></path>
            <path d="M112.091052,61.0583539 C113.480542,58.4466607 112.489283,55.2026629 109.876821,53.8131635 C107.265143,52.4236642 104.021165,53.4149294 102.631675,56.0270153 C101.242577,58.6391012 102.233443,61.8830991 104.845906,63.2725984 C107.457976,64.661705 110.701561,63.6704398 112.091052,61.0583539" id="Fill-25" fill="#7760DB"></path>
            <path d="M80.1738,50.1155354 L105.068707,63.1071 L111.5289,53.5599775 C98.2558508,42.8973757 90.9616263,37.0833499 89.6462266,36.1179 C88.330827,35.1524501 86.8023203,34.4909501 85.0607066,34.1334 L80.1738,50.1155354 Z" id="Fill-26" fill="#53A0FF"></path>
            <polygon id="Fill-28" fill="#53A0FF" points="66.2823 49.1181675 42.9307343 65.0916 35.3241 56.2251745 55.1290806 36.1179 57.5505 35.1077553"></polygon>
            <path d="M68.2668,88.70715 C68.2668,91.6664975 65.8679975,94.0653 62.90865,94.0653 C59.9496951,94.0653 57.5505,91.6664975 57.5505,88.70715 C57.5505,85.7478025 59.9496951,83.349 62.90865,83.349 C65.8679975,83.349 68.2668,85.7478025 68.2668,88.70715" id="Fill-30" fill="#0051B4"></path>
            <path d="M81.9596537,83.349 C84.9191096,83.349 87.318,85.7477147 87.318,88.7069537 C87.318,91.6661928 84.9191096,94.0653 81.9596537,94.0653 C79.0005904,94.0653 76.6017,91.6661928 76.6017,88.7069537 C76.6017,85.7477147 79.0005904,83.349 81.9596537,83.349" id="Fill-31" fill="#40327A"></path>
            <path d="M89.6920367,40.4031434 L87.6041878,82.9521 L56.4704757,82.9521 L54.3826269,40.4031434 C54.2152574,36.9912008 56.9367193,34.1334 60.3528499,34.1334 L83.7218136,34.1334 C87.1383712,34.1334 89.8598331,36.9912008 89.6920367,40.4031434" id="Fill-32" fill="#53A0FF"></path>
            <path d="M88.9056,83.349 L88.6175006,88.7067575 L88.6037407,88.9693657 C88.449801,91.8235128 85.8706668,94.0653 82.7411338,94.0653 L63.7149662,94.0653 C60.5850032,94.0653 58.005869,91.8231203 57.8523593,88.9693657 L57.8381694,88.7067575 L57.5505,83.349 L88.9056,83.349 Z" id="Fill-33" fill="#0051B4"></path>
            <path d="M88.1118,89.8980645 C88.1118,92.6381314 85.8904984,94.8591 83.150979,94.8591 C80.4106016,94.8591 78.1893,92.6381314 78.1893,89.8980645 C78.1893,87.1575686 80.4106016,84.9366 83.150979,84.9366 C85.8904984,84.9366 88.1118,87.1575686 88.1118,89.8980645" id="Fill-35" fill="#40327A"></path>
            <polygon id="Fill-36" fill="#0051B4" points="80.870906 144.4716 78.1893 89.6994 88.1118 89.6994 88.1118 144.4716"></polygon>
            <path d="M80.9676,147.2499 L80.9676,143.2809 L88.1781421,143.2809 L92.3157723,145.378913 C92.6602902,145.553946 92.8746,145.88893 92.8746,146.253681 C92.8746,146.804181 92.394751,147.2499 91.8026242,147.2499 L80.9676,147.2499 Z" id="Fill-37" fill="#05326A"></path>
            <path d="M107.698721,94.2615365 C109.453928,94.8861732 110.369896,96.8152334 109.744864,98.5700507 C109.12063,100.324868 107.191181,101.241242 105.436774,100.616205 C103.681567,99.9915686 102.765599,98.0629081 103.390232,96.3076911 C104.014865,94.5528738 105.943914,93.6368999 107.698721,94.2615365" id="Fill-38" fill="#40327A"></path>
            <path d="M57.4277719,75.3028681 C60.0086689,76.2214965 61.3557273,79.0584371 60.437103,81.6384877 C59.5184786,84.219396 56.6815504,85.5668892 54.1010822,84.6478319 C51.520614,83.7292035 50.1731267,80.8922629 51.0917511,78.3122123 C52.0103755,75.731304 54.8473037,74.3838108 57.4277719,75.3028681" id="Fill-39" fill="#0051B4"></path>
            <polygon id="Fill-40" fill="#0051B4" points="105.943463 100.4157 53.9784 84.7078708 57.2810333 75.411 108.3537 93.6314162"></polygon>
            <path d="M108.739365,105.659798 L112.3227,95.4915955 L108.356699,94.0653 L105.9723,100.831486 L106.700165,105.46886 C106.760785,105.854564 107.025157,106.176479 107.3893,106.307032 C107.939514,106.504774 108.543612,106.215177 108.739365,105.659798" id="Fill-41" fill="#05326A"></path>
            <polygon id="Fill-42" fill="#7FB8FF" points="78.3504003 34.1334 68.2668 33.5290644 68.8999037 22.2264 78.9831 22.8307356"></polygon>
            <path d="M78.5774213,34.03495 C78.4127279,36.8797299 75.972871,39.0521148 73.1280911,38.8874213 C70.2833112,38.7227279 68.1105136,36.282871 68.2756198,33.4380911 C68.4403132,30.5933112 70.8801702,28.4205136 73.72495,28.5856198 C76.5697299,28.7503132 78.7421148,31.1901702 78.5774213,34.03495" id="Fill-43" fill="#7FB8FF"></path>
            <polygon id="Fill-44" fill="#0051B4" points="58.9167676 92.0808 51.9939 83.1591378 58.8425015 76.2048 67.473 83.9381274"></polygon>
            <polygon id="Fill-45" fill="#0062DB" points="13.8915 66.6792 13.4745786 70.9092611 5.57689628 147.6468 3.5721 147.6468 9.49992803 66.6792"></polygon>
            <polygon id="Fill-46" fill="#0062DB" points="169.1151 66.6792 169.532021 70.9092611 177.429307 147.6468 179.4345 147.6468 173.506672 66.6792"></polygon>
            <polygon id="Fill-47" fill="#023777" points="3.5721 70.2513 178.5721 70.2513 178.5721 66.6792 3.5721 66.6792"></polygon>
            <path d="M44.3442873,62.0307873 C43.7330642,65.1492823 40.7098509,67.181598 37.5913054,66.5708066 C34.4727599,65.9591715 32.4399895,62.9360071 33.0512127,59.8179338 C33.6624358,56.6990169 36.6856491,54.6667013 39.8041946,55.2774927 C42.9227401,55.888706 44.9555105,58.9118703 44.3442873,62.0307873" id="Fill-48" fill="#53A0FF"></path>
            <polygon id="Fill-50" fill="#0055BF" points="137.7243 37.3086 136.658204 60.217668 136.358498 66.6792 95.256 66.6792 96.6218018 37.3086"></polygon>
            <path d="M120.654285,52.58925 C120.5774,54.2332665 119.184558,55.566 117.542373,55.566 C115.900187,55.566 114.630531,54.2332665 114.707415,52.58925 C114.7843,50.9456587 116.177142,49.6125 117.819327,49.6125 C119.461513,49.6125 120.731169,50.9456587 120.654285,52.58925" id="Fill-51" fill="#FFFFFF" opacity="0.23921131"></path>
            <path d="M83.9972746,13.7699594 L82.5489331,13.8915 L81.7614,3.71039098 L83.2097414,3.58885034 C85.9101406,3.36241848 88.2751386,5.4581619 88.4926097,8.26941334 C88.7100808,11.081081 86.6976738,13.5435275 83.9972746,13.7699594" id="Fill-53" fill="#0062DB"></path>
            <path d="M72.6327,25.4628576 L68.60657,25.7853104 C66.3830654,25.9635662 64.43511,24.3141472 64.256003,22.1012098 L63.9009,17.7120479 L71.95316,17.0667 L72.6327,25.4628576 Z" id="Fill-54" fill="#0062DB"></path>
            <path d="M84.0825948,13.5500297 L79.7124012,13.8915 L78.5862,0.320644203 L82.4934739,0.0153904891 C85.1608158,-0.192854629 87.4976277,1.73653855 87.7122057,4.32515903 L88.0973798,8.97079288 C88.291966,11.3115025 86.4944868,13.3616175 84.0825948,13.5500297" id="Fill-55" fill="#0062DB"></path>
            <path d="M83.7337583,28.2686851 L69.9425337,29.3706 L68.6918264,13.9612349 C68.3115119,9.27405488 71.8325296,5.16846464 76.556233,4.79066525 C81.1191496,4.4260548 85.1675482,7.67989461 85.7549562,12.1849822 L87.2852183,23.9180358 C87.5712045,26.1086766 85.9526169,28.0912726 83.7337583,28.2686851" id="Fill-56" fill="#7FB8FF"></path>
            <path d="M71.7772128,3.66440903 L72.9918222,3.5721 L74.2203,17.9470189 L64.9002422,18.6543 L64.3244771,11.9161621 C63.9638969,7.6986088 67.3008292,4.00413999 71.7772128,3.66440903" id="Fill-57" fill="#0062DB"></path>
            <path d="M69.3467224,19.8378286 L71.442,19.6625014 L71.2731752,17.4869229 C71.1798976,16.2852511 70.1661779,15.3894011 69.0094582,15.4862714 C67.8523531,15.5831417 66.9897278,16.6355052 67.0830054,17.8371771 C67.176283,19.0388489 68.1896173,19.9346989 69.3467224,19.8378286" id="Fill-58" fill="#7FB8FF"></path>
            <path d="M86.9211,10.3385877 L78.1001501,11.0906198 C74.5052582,11.3969529 71.3450875,8.55036208 71.0552734,4.74450041 C70.9176331,2.93365052 72.1927297,1.3472338 73.9038298,1.20153324 C75.6145025,1.05538019 77.1131578,2.40514661 77.2507981,4.21644898 C77.2653316,4.40558822 77.4222073,4.54721641 77.6013108,4.53183188 L86.4222607,3.77979977 L86.9211,10.3385877 Z" id="Fill-59" fill="#0062DB"></path>
            <path d="M83.5375388,5.99886694 L79.2668713,6.34056635 C77.602197,6.47361013 76.1438392,5.24109582 76.0098999,3.58713847 C75.8759606,1.93359429 77.116771,0.48457395 78.7814453,0.351530166 L83.0521127,0.00983075763 C84.716787,-0.123213026 86.1755608,1.10971446 86.3095002,2.76325864 C86.4434395,4.41680281 85.202629,5.86582316 83.5375388,5.99886694" id="Fill-60" fill="#0062DB"></path>
            <path d="M87.688933,27.7530577 C87.9160076,29.5064198 86.6274018,31.0955106 84.8573296,31.2376521 L78.7096684,31.7317427 C75.2928782,32.0058119 72.3003591,29.4668415 72.0254793,26.060127 L71.442,18.8407011 L73.7605514,18.6543 C73.8753692,20.0740126 75.1225723,21.1324135 76.5469106,21.0179342 L86.7063657,20.2021102 L87.688933,27.7530577 Z" id="Fill-61" fill="#0062DB"></path>
            <path d="M82.426743,62.612981 C81.9347045,60.9305693 80.171302,59.9651665 78.4888479,60.4571926 C76.8059969,60.9496154 75.8409666,62.7125766 76.3334019,64.3949884 C76.8254404,66.0777969 78.588446,67.0428029 80.2709002,66.5507768 C81.9541479,66.0587507 82.9187814,64.2953928 82.426743,62.612981" id="Fill-62" fill="#7FB8FF"></path>
            <path d="M76.0924332,63.1214423 C76.5229451,64.5935836 75.6785863,66.1365543 74.2060505,66.5666233 C72.7339777,66.9976181 71.1915416,66.1532201 70.7605668,64.6806159 C70.3300549,63.2080117 71.1744137,61.6655039 72.6469495,61.234972 C74.1190223,60.8044401 75.6614584,61.6488381 76.0924332,63.1214423" id="Fill-63" fill="#7FB8FF"></path>
            <polygon id="Fill-64" fill="#7FB8FF" points="79.38 66.6763664 73.7119246 66.6792 73.0296 61.918424 78.4699637 60.3288"></polygon>
            <polygon id="Fill-65" fill="#53A0FF" points="39.6266982 55.9629 53.5815 57.74895 73.0296 61.9634413 72.5331469 66.6768215 70.7791281 66.6768215 68.1883177 66.6760287 38.4993 66.6792"></polygon>
            <polygon id="Fill-66" fill="#7FB8FF" points="73.6949643 66.6792 74.2203 61.5607579 71.8402728 61.1226 71.8389 66.6792"></polygon>
            <polygon id="Fill-68" fill="#FFFFFF" opacity="0.471423921" points="71.2809627 61.1226 50.0094 57.4754405 50.170019 56.7567 71.442 60.4038595"></polygon>
            <polygon id="Fill-69" fill="#FFFFFF" opacity="0.319545201" points="77.1516058 92.8746 62.3133 88.1677755 62.5571942 87.318 77.3955 92.0248245"></polygon>
            <path d="M84.5309795,21.8295 C84.6379505,23.0330035 83.7483812,24.0956673 82.5454545,24.2022917 C81.3417325,24.3085183 80.2803733,23.4193182 80.1738,22.2154168 L84.5309795,21.8295 Z" id="Fill-90" fill="#7FB8FF"></path>
            <path d="M16.47135,5.5566 L16.47135,9.1287 L16.47135,5.5566 Z" id="Fill-110" fill="#333854"></path>
            <polygon id="Fill-144" fill="#66A9FD" points="96.1455789 66.6792 95.256 66.6392126 96.1455789 36.9117 97.6374 36.9117"></polygon>
            <path d="M75.8079,70.84665 L169.8732,70.84665 L75.8079,70.84665 Z" id="Fill-147" fill="#F8F7FF"></path>
            <path d="M182.1771,70.84665 L206.7849,70.84665 L182.1771,70.84665 Z" id="Fill-149" fill="#F8F7FF"></path>
            <path d="M174.2391,70.84665 L178.2081,70.84665 L174.2391,70.84665 Z" id="Fill-151" fill="#F8F7FF"></path>
            <path d="M155.5848,148.63905 L180.1926,148.63905 L155.5848,148.63905 Z" id="Fill-155" fill="#F8F7FF"></path>
            <path d="M0,148.63905 L51.9939,148.63905 L0,148.63905 Z" id="Fill-157" fill="#F8F7FF"></path>
            <path d="M144.8685,148.63905 L151.2189,148.63905 L144.8685,148.63905 Z" id="Fill-161" fill="#F8F7FF"></path>
            <path d="M0,128.00025 L17.4636,128.00025 L0,128.00025 Z" id="Fill-159" fill="#F8F7FF"></path>
        </g>
    </g>
</svg>