<?xml version="1.0" encoding="UTF-8"?>
<svg width="67px" height="122px" viewBox="0 0 67 122" version="1.1" xmlns="http://www.w3.org/2000/svg" xmlns:xlink="http://www.w3.org/1999/xlink">
    <!-- Generator: Sketch 56.2 (81672) - https://sketch.com -->
    <title>img-howitworks-customeraccepts</title>
    <desc>Created with Sketch.</desc>
    <g id="img-howitworks-customeraccepts" stroke="none" stroke-width="1" fill="none" fill-rule="evenodd">
        <g id="Phone-illustration" transform="translate(1.000000, 1.000000)">
            <path d="M55.9,120 L9.1,120 C4.08278,120 0,115.903565 0,110.869565 L0,9.13043478 C0,4.09643478 4.08278,0 9.1,0 L55.9,0 C60.91722,0 65,4.09643478 65,9.13043478 L65,110.869565 C65,115.903565 60.91722,120 55.9,120 Z M9.1,2.60869565 C5.50979,2.60869565 2.6,5.52821739 2.6,9.13043478 L2.6,110.869565 C2.6,114.471783 5.50979,117.391304 9.1,117.391304 L55.9,117.391304 C59.49021,117.391304 62.4,114.471783 62.4,110.869565 L62.4,9.13043478 C62.4,5.52821739 59.49021,2.60869565 55.9,2.60869565 L9.1,2.60869565 Z" id="Fill-1" stroke="#0072FF" stroke-width="0.5" fill="#75B3FF"></path>
            <path d="M38.0909091,12 L27.9090909,12 C26.85512,12 26,11.10416 26,10 C26,8.89584 26.85512,8 27.9090909,8 L38.0909091,8 C39.14488,8 40,8.89584 40,10 C40,11.10416 39.14488,12 38.0909091,12 Z M27.9090909,9.33333333 C27.5511364,9.33333333 27.2727273,9.625 27.2727273,10 C27.2727273,10.375 27.5511364,10.6666667 27.9090909,10.6666667 L38.0909091,10.6666667 C38.4488636,10.6666667 38.7272727,10.375 38.7272727,10 C38.7272727,9.625 38.4488636,9.33333333 38.0909091,9.33333333 L27.9090909,9.33333333 Z" id="Fill-3" fill="#75B3FF"></path>
            <rect id="Rectangle" fill="#378FFD" x="5" y="17" width="55" height="90"></rect>
            <path d="M32.5,44 C23.4064013,44 16,51.4013458 16,60.5 C16,69.5986542 23.4069661,77 32.5,77 C41.5930339,77 49,69.5986542 49,60.5 C49,51.4013458 41.5930339,44 32.5,44 Z M38.6934911,58.1112493 L31.7120764,65.1040374 L31.664801,65.1511769 C31.6490344,65.16689 31.6175175,65.1983243 31.601759,65.2140374 C31.5860005,65.2297506 31.5544836,65.2454637 31.5387251,65.2611769 C31.5229586,65.27689 31.4914416,65.2926031 31.4756832,65.3083243 C31.4599247,65.3240374 31.4284077,65.3397506 31.3968827,65.3554637 C31.3811243,65.3711769 31.3496073,65.38689 31.3338488,65.38689 C31.3023319,65.4026031 31.2865734,65.4183163 31.2550484,65.4183163 C31.2392899,65.4340374 31.207773,65.4340374 31.1920145,65.4497506 C31.1604976,65.4654637 31.1289726,65.4654637 31.1132141,65.4811769 C31.0974556,65.4811769 31.0816971,65.49689 31.0501802,65.49689 C31.0186552,65.5126031 30.9871382,65.5126031 30.9556213,65.5126031 C30.9398548,65.5126031 30.9240963,65.5283163 30.8925793,65.5283163 C30.8610624,65.5283163 30.8295455,65.5440294 30.7980204,65.5440294 L30.750745,65.5440294 L30.5931522,65.5440294 L30.4355594,65.5440294 L30.388276,65.5440294 C30.356759,65.5440294 30.3252421,65.5440294 30.2937171,65.5283163 C30.2779586,65.5283163 30.2464416,65.5126031 30.2306832,65.5126031 C30.1991662,65.5126031 30.1676412,65.49689 30.1518827,65.49689 C30.1361243,65.49689 30.1046073,65.4811769 30.0888488,65.4654637 C30.0573238,65.4497506 30.0415654,65.4497506 30.0100484,65.4340374 C29.9785315,65.4183163 29.962773,65.4183163 29.931248,65.4026031 C29.9154895,65.38689 29.8839726,65.38689 29.8682141,65.3711769 C29.8366971,65.3554637 29.8209387,65.3397506 29.7894137,65.3240374 C29.7736552,65.3083243 29.7578967,65.3083243 29.7263798,65.2926031 C29.6948628,65.27689 29.6790963,65.2611769 29.6475793,65.2454637 C29.6318209,65.2297506 29.6160624,65.2140374 29.6003039,65.2140374 C29.568787,65.1983243 29.5530204,65.16689 29.537262,65.1511769 C29.5215035,65.1354637 29.505745,65.1197506 29.4899866,65.1040374 L26.3065815,61.9141018 C25.6919607,61.3012493 25.6919607,60.3112493 26.3065815,59.6984128 C26.9212023,59.0855603 27.9140586,59.0855603 28.5286633,59.6984128 L30.6088946,61.7569705 L36.4714013,55.8955603 C37.0860221,55.2827077 38.0788784,55.2827077 38.6934831,55.8955603 C39.3081038,56.5084128 39.3081038,57.4984128 38.6934831,58.1112493 L38.6934911,58.1112493 Z" id="Fill-1" fill="#FFFFFF" opacity="0.786365327"></path>
        </g>
    </g>
</svg>