<?xml version="1.0" encoding="UTF-8"?>
<svg width="293px" height="211px" viewBox="0 0 293 211" version="1.1" xmlns="http://www.w3.org/2000/svg" xmlns:xlink="http://www.w3.org/1999/xlink">
    <!-- Generator: Sketch 56.2 (81672) - https://sketch.com -->
    <title>img-relationships-hero</title>
    <desc>Created with Sketch.</desc>
    <g id="img-relationships-hero" stroke="none" stroke-width="1" fill="none" fill-rule="evenodd">
        <g id="Illustration" transform="translate(0.000000, -1.000000)">
            <polygon id="Fill-4" fill="#DFDEE5" points="116.802 119.07 143.247324 212.058 146.286 212.058 124.661993 119.07"></polygon>
            <polygon id="Fill-6" fill="#DFDEE5" points="89.019 119.07 62.5742154 212.058 59.535 212.058 81.1591678 119.07"></polygon>
            <path d="M147.987,101.209801 C147.987,125.79151 128.05924,145.719 103.477801,145.719 C78.8951581,145.719 58.968,125.79151 58.968,101.209801 C58.968,76.6280918 78.8951581,56.7 103.477801,56.7 C128.05924,56.7 147.987,76.6280918 147.987,101.209801" id="Fill-8" fill="#00CCFF"></path>
            <path d="M127.008,119.235079 C127.008,122.186344 126.431195,124.997073 125.386312,127.575 L83.8366884,127.575 C82.7930336,124.997073 82.215,122.186344 82.215,119.235079 C82.215,106.928365 92.239983,96.957 104.612114,96.957 C116.976874,96.957 127.008,106.928365 127.008,119.235079" id="Fill-23" fill="#40327A"></path>
            <path d="M109.998,119.07 C109.998,122.514071 107.205071,125.307 103.761,125.307 C100.316305,125.307 97.524,122.514071 97.524,119.07 C97.524,115.625305 100.316305,112.833 103.761,112.833 C107.205071,112.833 109.998,115.625305 109.998,119.07" id="Fill-24" fill="#40327A"></path>
            <path d="M160.130074,87.2262198 C162.115061,83.4952296 160.698976,78.8609469 156.966887,76.8759479 C153.235919,74.8909489 148.601665,76.307042 146.616678,80.0385933 C144.632252,83.7701446 146.047776,88.4044272 149.779865,90.3894263 C153.511394,92.3738642 158.145087,90.9577711 160.130074,87.2262198" id="Fill-25" fill="#7760DB"></path>
            <polygon id="Fill-26" fill="#E9EBF2" points="114.534 71.593622 150.098153 90.153 159.327 76.5142536 128.066038 51.597"></polygon>
            <path d="M131.281425,66.2594297 C128.193942,72.0641433 120.985054,74.2671012 115.180324,71.1790316 C109.375595,68.0921525 107.173226,60.8832839 110.260709,55.0785703 C113.348192,49.2738567 120.556485,47.0708988 126.361214,50.1589684 C132.165944,53.2464427 134.368908,60.4547161 131.281425,66.2594297" id="Fill-27" fill="#E9EBF2"></path>
            <polygon id="Fill-28" fill="#E9EBF2" points="94.689 70.1688108 61.3296204 92.988 50.463 80.3216778 78.7558294 51.597"></polygon>
            <path d="M76.3961175,67.4473535 C80.1399438,72.8532489 87.5567562,74.2004069 92.9626534,70.457177 C98.3679552,66.7133519 99.7157089,59.2959466 95.9718825,53.8906465 C92.2280562,48.4847511 84.8112438,47.1375931 79.4053466,50.880823 C74.0000448,54.6246481 72.6522911,62.0414581 76.3961175,67.4473535" id="Fill-29" fill="#E9EBF2"></path>
            <path d="M97.524,126.7245 C97.524,130.952139 94.0971392,134.379 89.8695,134.379 C85.6424215,134.379 82.215,130.952139 82.215,126.7245 C82.215,122.496861 85.6424215,119.07 89.8695,119.07 C94.0971392,119.07 97.524,122.496861 97.524,126.7245" id="Fill-30" fill="#40327A"></path>
            <path d="M117.08522,119.07 C121.313014,119.07 124.74,122.496735 124.74,126.72422 C124.74,130.951704 121.313014,134.379 117.08522,134.379 C112.857986,134.379 109.431,130.951704 109.431,126.72422 C109.431,122.496735 112.857986,119.07 117.08522,119.07" id="Fill-31" fill="#40327A"></path>
            <path d="M128.131481,57.7187763 L125.14884,118.503 L80.6721082,118.503 L77.689467,57.7187763 C77.4503677,52.8445726 81.3381704,48.762 86.218357,48.762 L119.602591,48.762 C124.483387,48.762 128.37119,52.8445726 128.131481,57.7187763" id="Fill-32" fill="#E9EBF2"></path>
            <path d="M127.008,119.07 L126.596429,126.723939 L126.576772,127.099094 C126.356859,131.176447 122.672381,134.379 118.20162,134.379 L91.0213803,134.379 C86.5500046,134.379 82.8655271,131.175886 82.6462276,127.099094 L82.6259562,126.723939 L82.215,119.07 L127.008,119.07 Z" id="Fill-33" fill="#40327A"></path>
            <path d="M125.874,128.425806 C125.874,132.340188 122.700712,135.513 118.787113,135.513 C114.872288,135.513 111.699,132.340188 111.699,128.425806 C111.699,124.510812 114.872288,121.338 118.787113,121.338 C122.700712,121.338 125.874,124.510812 125.874,128.425806" id="Fill-35" fill="#40327A"></path>
            <polygon id="Fill-36" fill="#40327A" points="115.529866 206.388 111.699 128.142 125.874 128.142 125.874 206.388"></polygon>
            <path d="M115.668,210.357 L115.668,204.687 L125.968774,204.687 L131.879675,207.684162 C132.371843,207.934209 132.678,208.412757 132.678,208.93383 C132.678,209.720259 131.992501,210.357 131.146606,210.357 L115.668,210.357 Z" id="Fill-37" fill="#81482B"></path>
            <path d="M153.855315,134.659338 C156.362754,135.551676 157.67128,138.307476 156.778376,140.814358 C155.886614,143.32124 153.130259,144.630345 150.623963,143.737436 C148.116524,142.845098 146.807998,140.089869 147.700331,137.582416 C148.592664,135.075534 151.348448,133.767 153.855315,134.659338" id="Fill-38" fill="#40327A"></path>
            <path d="M82.0396741,107.575526 C85.7266699,108.887852 87.6510391,112.940624 86.3387185,116.626411 C85.026398,120.313423 80.9736434,122.238413 77.2872603,120.925474 C73.6008771,119.613148 71.6758953,115.560376 72.9882158,111.874589 C74.3005364,108.187577 78.353291,106.262587 82.0396741,107.575526" id="Fill-39" fill="#40327A"></path>
            <polygon id="Fill-40" fill="#40327A" points="151.347805 143.451 77.112 121.011244 81.8300475 107.73 154.791 133.759166"></polygon>
            <path d="M155.34195,150.942569 L160.461,136.416565 L154.795285,134.379 L151.389,144.04498 L152.428807,150.6698 C152.515407,151.220805 152.893082,151.680685 153.413286,151.867188 C154.199305,152.149677 155.062303,151.735968 155.34195,150.942569" id="Fill-41" fill="#81482B"></path>
            <polygon id="Fill-42" fill="#FF95A9" points="111.929143 48.762 97.524 47.8986634 98.4284338 31.752 112.833 32.6153366"></polygon>
            <path d="M112.253459,48.6213572 C112.018183,52.6853284 108.532673,55.7887354 104.468702,55.5534591 C100.40473,55.3181827 97.3007337,51.8326728 97.5365997,47.7687016 C97.7718761,43.7047303 101.257386,40.6007337 105.321357,40.8365997 C109.385328,41.0718761 112.488735,44.5573859 112.253459,48.6213572" id="Fill-43" fill="#FF95A9"></path>
            <polygon id="Fill-44" fill="#40327A" points="84.1668108 131.544 74.277 118.798768 84.0607165 108.864 96.39 119.911611"></polygon>
            <polygon id="Fill-45" fill="#DFDEE5" points="19.845 95.256 19.249398 101.298944 7.96699469 210.924 5.103 210.924 13.5713258 95.256"></polygon>
            <polygon id="Fill-46" fill="#DFDEE5" points="271.593 95.256 272.188602 101.298944 283.470438 210.924 286.335 210.924 277.866674 95.256"></polygon>
            <polygon id="Fill-47" fill="#7D7D7D" points="5.103 100.359 285.201 100.359 285.201 95.256 5.103 95.256"></polygon>
            <path d="M63.3489819,88.6154104 C62.475806,93.0704033 58.1569299,95.9737114 53.7018649,95.1011522 C49.2467998,94.2273879 46.3428422,89.9085816 47.2160181,85.4541912 C48.089194,80.9985956 52.4080701,78.0952876 56.8631351,78.9678467 C61.3182002,79.8410085 64.2221578,84.1598148 63.3489819,88.6154104" id="Fill-48" fill="#E9EBF2"></path>
            <polygon id="Fill-50" fill="#A9A9AB" points="196.749 53.298 195.226006 86.02524 194.797855 95.256 136.08 95.256 138.031145 53.298"></polygon>
            <path d="M172.363264,75.1275 C172.253429,77.476095 170.263655,79.38 167.917676,79.38 C165.571696,79.38 163.757901,77.476095 163.867736,75.1275 C163.977571,72.7795125 165.967345,70.875 168.313324,70.875 C170.659304,70.875 172.473099,72.7795125 172.363264,75.1275" id="Fill-51" fill="#FFFFFF" opacity="0.23921131"></path>
            <path d="M119.996107,19.6713705 L117.927047,19.845 L116.802,5.30055854 L118.871059,5.12692906 C122.728772,4.80345498 126.107341,7.79737414 126.418014,11.8134476 C126.728687,15.8301157 123.85382,19.3478964 119.996107,19.6713705" id="Fill-53" fill="#40327A"></path>
            <path d="M103.761,36.3755109 L98.0093857,36.8361577 C94.8329505,37.0908088 92.0501571,34.734496 91.79429,31.5731569 L91.287,25.3029256 L102.790229,24.381 L103.761,36.3755109 Z" id="Fill-54" fill="#40327A"></path>
            <path d="M120.117993,19.3571853 L113.874859,19.845 L112.266,0.458063147 L117.84782,0.0219864131 C121.658308,-0.275506613 124.996611,2.48076936 125.303151,6.17879861 L125.8534,12.8154184 C126.13138,16.1592893 123.563553,19.088025 120.117993,19.3571853" id="Fill-55" fill="#40327A"></path>
            <path d="M119.619655,40.3838359 L99.9179053,41.958 L98.1311806,19.9446214 C97.5878741,13.2486498 102.617899,7.38352092 109.366047,6.8438075 C115.884499,6.32293543 121.667926,10.971278 122.50708,17.4071174 L124.693169,34.1686226 C125.101721,37.2981095 122.789453,40.1303894 119.619655,40.3838359" id="Fill-56" fill="#FF95A9"></path>
            <path d="M102.538875,5.23487005 L104.274032,5.103 L106.029,25.6385985 L92.7146317,26.649 L91.8921101,17.0230888 C91.3769956,10.9980126 96.1440418,5.72019999 102.538875,5.23487005" id="Fill-57" fill="#40327A"></path>
            <path d="M99.0667463,28.3397552 L102.06,28.0892877 L101.818822,24.9813185 C101.685568,23.2646444 100.237397,21.9848587 98.5849403,22.1232448 C96.931933,22.2616309 95.6996111,23.7650074 95.8328649,25.4816815 C95.9661186,27.1983556 97.4137389,28.4781413 99.0667463,28.3397552" id="Fill-58" fill="#FF95A9"></path>
            <path d="M124.173,14.7694109 L111.571643,15.8437425 C106.436083,16.2813614 101.921554,12.214803 101.507533,6.77785773 C101.310904,4.19092932 103.132471,1.92461972 105.5769,1.71647605 C108.020718,1.50768598 110.161654,3.43592372 110.358283,6.02349854 C110.379045,6.29369746 110.603153,6.49602345 110.859015,6.47404555 L123.460372,5.39971396 L124.173,14.7694109 Z" id="Fill-59" fill="#40327A"></path>
            <path d="M119.631913,9.13680992 L113.530959,9.62495193 C111.152853,9.81501448 109.069485,8.05427975 108.878143,5.69148353 C108.686801,3.32927756 110.459387,1.2592485 112.837493,1.06918595 L118.938447,0.581043939 C121.316553,0.390981391 123.400515,2.15230638 123.591857,4.51451234 C123.783199,6.8767183 122.010613,8.94674737 119.631913,9.13680992" id="Fill-60" fill="#40327A"></path>
            <path d="M125.269904,39.6472253 C125.594297,42.1520283 123.753431,44.422158 121.224757,44.6252172 L112.442383,45.331061 C107.561255,45.7225885 103.286227,42.0954878 102.893542,37.2287529 L102.06,26.9152873 L105.372216,26.649 C105.536242,28.6771609 107.31796,30.1891621 109.352729,30.0256204 L123.866237,28.8601574 L125.269904,39.6472253 Z" id="Fill-61" fill="#40327A"></path>
            <path d="M117.75249,89.4471157 C117.049578,87.0436704 114.530431,85.6645236 112.126926,86.3674179 C109.722853,87.0708792 108.344238,89.5893952 109.047717,91.9928405 C109.750629,94.3968527 112.269209,95.7754327 114.672715,95.0725383 C117.077354,94.3696439 118.455402,91.8505611 117.75249,89.4471157" id="Fill-62" fill="#FF95A9"></path>
            <path d="M108.703476,90.1734891 C109.318493,92.276548 108.112266,94.4807919 106.008644,95.0951761 C103.905682,95.710883 101.702202,94.5046001 101.086524,92.4008798 C100.471507,90.2971595 101.677734,88.093577 103.781356,87.4785314 C105.884318,86.8634859 108.087798,88.0697688 108.703476,90.1734891" id="Fill-63" fill="#FF95A9"></path>
            <polygon id="Fill-64" fill="#FF95A9" points="113.4 95.2519521 105.302749 95.256 104.328 88.4548914 112.099948 86.184"></polygon>
            <polygon id="Fill-65" fill="#E9EBF2" points="56.6095689 79.947 76.545 82.4985 104.328 88.5192019 103.618781 95.2526022 101.11304 95.2526022 97.4118824 95.2514695 54.999 95.256"></polygon>
            <polygon id="Fill-66" fill="#FF95A9" points="105.27852 95.256 106.029 87.9439399 102.628961 87.318 102.627 95.256"></polygon>
            <polygon id="Fill-67" fill="#E9EBF2" points="76.545 85.617 82.782 85.617 82.782 79.38 76.545 79.38"></polygon>
            <polygon id="Fill-68" fill="#FFFFFF" points="101.829947 87.318 71.442 82.1077721 71.6714557 81.081 102.06 86.2912279"></polygon>
            <polygon id="Fill-69" fill="#7760DB" points="110.21658 132.678 89.019 125.953965 89.3674203 124.74 110.565 131.464035"></polygon>
            <path d="M120.758542,31.185 C120.911358,32.9042907 119.640545,34.4223818 117.922078,34.5747024 C116.202475,34.7264547 114.686248,33.4561688 114.534,31.7363098 L120.758542,31.185 Z" id="Fill-90" fill="#FFFFFF"></path>
            <path d="M23.5305,7.938 L23.5305,13.041 L23.5305,7.938 Z" id="Fill-110" fill="#333854"></path>
            <polygon id="Fill-133" fill="#A5FBFF" points="40.7933514 95.256 32.3496486 95.256 31.185 76.545 41.958 76.545"></polygon>
            <polygon id="Fill-144" fill="#FFFFFF" points="137.350827 95.256 136.08 95.1988751 137.350827 52.731 139.482 52.731"></polygon>
            <path d="M108.297,101.2095 L242.676,101.2095 L108.297,101.2095 Z" id="Fill-147" fill="#F8F7FF"></path>
            <path d="M260.253,101.2095 L295.407,101.2095 L260.253,101.2095 Z" id="Fill-149" fill="#F8F7FF"></path>
            <path d="M248.913,101.2095 L254.583,101.2095 L248.913,101.2095 Z" id="Fill-151" fill="#F8F7FF"></path>
            <path d="M0,182.8575 L24.948,182.8575 L0,182.8575 Z" id="Fill-159" fill="#F8F7FF"></path>
        </g>
    </g>
</svg>