<?xml version="1.0" encoding="UTF-8"?>
<svg width="170px" height="23px" viewBox="0 0 170 23" version="1.1" xmlns="http://www.w3.org/2000/svg" xmlns:xlink="http://www.w3.org/1999/xlink">
    <!-- Generator: Sketch 56.2 (81672) - https://sketch.com -->
    <title>Artboard</title>
    <desc>Created with Sketch.</desc>
    <g id="Artboard" stroke="none" stroke-width="1" fill="none" fill-rule="evenodd">
        <g id="Logo" transform="translate(0.000000, -8.000000)" fill="#0072FF">
            <text id="finstream" font-family="HelveticaNeue-Bold, Helvetica Neue" font-size="31.1027079" font-weight="bold" letter-spacing="-0.300993928">
                <tspan x="33.1093342" y="30">finstream</tspan>
            </text>
            <path d="M19.0281214,14.6844644 L19.0247632,14.6844644 C19.0266375,14.7297467 19.0281214,14.7751908 19.0281214,14.8209583 C19.0281214,16.3706654 17.9207555,17.6520747 16.4807659,17.8646591 L16.4807659,17.896195 L6.00198718,17.896195 C5.26418581,17.896195 4.53692781,18.0778904 3.88034942,18.4264836 L3.04008215,18.8724337 L3.04008215,14.5118255 L3.04414329,14.5118255 C3.04148793,14.4582953 3.04008215,14.4044417 3.04008215,14.3502646 C3.04008215,12.8005574 4.14736994,11.5191481 5.58743762,11.3065637 L5.58743762,11.3001757 L5.63617141,11.3001757 C5.75878686,11.284246 5.88335478,11.2750278 6.01010948,11.2750278 C6.13686417,11.2750278 6.2615102,11.284246 6.38404755,11.3001757 L19.0281214,11.3001757 L19.0281214,14.6844644 Z M9.40476114,25.3444927 L9.37414632,25.3444927 C9.17288517,26.7963576 7.98742027,27.9182275 6.54008937,27.9629438 L6.54008937,27.9653697 L2.98353846,27.9653697 L2.98353846,23.9197971 L3.01391898,23.9197971 C3.21830409,22.4368814 4.44937882,21.296656 5.93810219,21.296656 C5.96824841,21.296656 5.99808223,21.2980307 6.02799415,21.299001 L9.40476114,21.299001 L9.40476114,25.3444927 Z M5.59407604,8.02650527 L5.59407604,8.03030575 C2.6087413,8.10680056 0.189780599,10.5423434 0.0116367528,13.6053701 L-3.37507799e-14,13.6053701 L-3.37507799e-14,31.1027079 L7.45829946,31.1027079 L7.45829946,31.0281538 C9.97597731,30.6143056 11.9469621,28.5053616 12.2483462,25.866129 L12.2899729,25.866129 L12.2899729,21.1146372 L17.2921366,21.1146372 L17.2921366,21.0307031 C20.0052962,20.5585539 22.0728895,18.116623 22.0728895,15.1733519 L22.0728895,8.02650527 L5.59407604,8.02650527 L5.59407604,8.02650527 Z" id="logo"></path>
        </g>
    </g>
</svg>